<svg xmlns="http://www.w3.org/2000/svg" fill-rule="evenodd" stroke-miterlimit="1.41" viewBox="0 0 335 600" clip-rule="evenodd" stroke-linejoin="round">
  <path fill="#fff" d="M0 0h334.52v600H0z"/>
  <g fill="#1a1a18" font-family="'ArialMT', 'Arial', sans-serif" font-size="7.91">
    <text x="7.63" y="146.38" transform="translate(-2) scale(3.7463)">
      Euroopa Liit Euroopa
    </text>
    <text x="23.02" y="154.45" transform="translate(-2) scale(3.7463)">
      Sotsiaalfond
    </text>
  </g>
  <g fill="#1a1a18" font-family="'ArialMT', 'Arial', sans-serif" font-size="7.91">
    <text x="21.97" y="68.3" transform="scale(3.7463)">
      Eesti tuleviku
    </text>
    <text x="34.72" y="76.33" transform="scale(3.7463)">
      heaks
    </text>
  </g>
  <g id="estFlag">
    <path fill="#0076be" d="M82.03 81.2c36.95-23.25 95.63-33.88 150.3.7-36-54.56-128.2-87.43-203.1-29.68 20.7 4.1 38.93 14.52 52.8 29z"/>
    <path d="M110.14 149.68c0-40.87-28.1-68.48-28.1-68.48s30.88-21.65 75.33-21.65c43.82 0 74.95 22.3 74.95 22.3s24.97 33.8 24.97 76.17c0 23.95-4.86 37.2-4.86 37.2s-20.94 9.3-34.86 13.4c13.26-6.58 19.1-12.23 19.1-12.23s-18.35-2.65-41.47-2.65c-65.75 0-118.98 32.3-118.98 32.3s33.92-25.47 33.92-76.37z"/>
    <path fill="#fff" d="M254.3 147.75c-24.67-19.4-79.82-33.52-131.27-12.04 3.6 39.5-16.33 70.37-40.03 86.43 30.26-17.44 91.27-45.73 168.63-27.3 5.1-25.67 3.32-42.66 2.68-47.08"/>
  </g>
  <g id="euFlag">
    <path fill="#124094" d="M21.2 312.7h291.96V508H21.2z"/>
    <g fill="#ffed00">
      <path id="Star"  d="M234.74 405.82h8.4l-6.76 5.08 2.63 8.07-6.74-4.95-6.76 4.95 2.65-8.07-6.84-5.08h8.4l2.56-7.86 2.48 7.86z"/>
      <path id="Star1" d="M225.82 373.62h8.4l-6.76 5.08 2.63 8.07-6.76-4.95-6.76 4.95 2.65-8.07-6.84-5.08h8.4l2.54-7.86 2.48 7.86z"/>
      <path id="Star2" d="M201.9 349.7h8.4l-6.75 5.08 2.63 8.07-6.75-4.95-6.76 4.95 2.65-8.07-6.84-5.08h8.4l2.55-7.86 2.48 7.86z"/>
      <path id="Star3" d="M169.33 341.15h8.4l-6.76 5.08 2.63 8.06-6.75-4.96-6.76 4.95 2.64-8.07-6.84-5.08h8.4l2.55-7.86 2.48 7.85z"/>
      <path id="Star4" d="M136.5 349.8h8.4l-6.76 5.08 2.63 8.06-6.75-4.95-6.76 4.94 2.65-8.06-6.83-5.08h8.4l2.55-7.87 2.48 7.87z"/>
      <path id="Star5" d="M113.25 373.7h8.4l-6.77 5.08 2.64 8.07-6.75-4.95-6.77 4.95 2.66-8.07-6.85-5.08h8.4l2.57-7.86 2.48 7.86z"/>
      <path id="Star6" d="M104.6 405.92h8.4l-6.76 5.08 2.64 8.07-6.75-4.95-6.77 4.95 2.66-8.07-6.84-5.08h8.4l2.55-7.86 2.48 7.86z"/>
      <path id="Star7" d="M113.25 439.14h8.4l-6.77 5.08 2.64 8.06-6.75-4.95-6.77 4.95 2.66-8.06-6.85-5.08h8.4l2.57-7.86 2.48 7.86z"/>
      <path id="Star8" d="M136.82 462.72h8.4l-6.76 5.08 2.63 8.07-6.76-4.95-6.76 4.95 2.65-8.07-6.84-5.08h8.4l2.54-7.86 2.48 7.86z"/>
      <path id="Star9" d="M169.7 471.3h8.4l-6.76 5.07 2.63 8.06-6.75-4.95-6.76 4.95 2.65-8.06-6.83-5.08h8.4l2.55-7.88 2.48 7.87z"/>
      <path id="Star10" d="M201.93 462.72h8.4l-6.77 5.08 2.64 8.07-6.75-4.95-6.77 4.95 2.66-8.07-6.85-5.08h8.4l2.55-7.86 2.48 7.86z"/>
      <path id="Star11"  d="M225.82 439.05h8.4l-6.76 5.08 2.63 8.07-6.76-4.95-6.76 4.95 2.65-8.07-6.84-5.08h8.4l2.54-7.86 2.48 7.85z"/>
    </g>
  </g>
</svg>
