<?xml version="1.0" encoding="UTF-8" standalone="no"?>
<!DOCTYPE svg PUBLIC "-//W3C//DTD SVG 1.1//EN" "http://www.w3.org/Graphics/SVG/1.1/DTD/svg11.dtd">
<svg width="100%" height="100%" viewBox="0 0 245 255" version="1.1" xmlns="http://www.w3.org/2000/svg" xmlns:xlink="http://www.w3.org/1999/xlink" xml:space="preserve" xmlns:serif="http://www.serif.com/" style="fill-rule:evenodd;clip-rule:evenodd;stroke-linejoin:round;stroke-miterlimit:1.41421;">
    <g>
        <path d="M185.581,136.277c-32.214,0 -58.42,26.204 -58.42,58.419c0,32.214 26.206,58.42 58.42,58.42c32.213,0 58.419,-26.206 58.419,-58.42c0,-32.215 -26.206,-58.419 -58.419,-58.419Zm-135.679,112.282l58.82,0l0,-243.002l-58.82,24.431l0,218.571Zm-24.954,0l-23.543,0l0,-13.623l2.219,0l0,11.269l8.342,0l0,-10.427l2.22,0l0,10.427l8.543,0l0,-11.438l2.219,0l0,13.792Zm0,-17.328l-23.543,0l0,-13.624l2.219,0l0,11.269l8.342,0l0,-10.428l2.22,0l0,10.428l8.543,0l0,-11.435l2.219,0l0,13.79Zm-5.348,-15.637l-1.177,-2.019c2.826,-0.84 4.642,-3.06 4.642,-6.761c0,-3.563 -1.714,-5.549 -4.238,-5.549c-2.725,0 -3.599,2.321 -4.743,5.788c-1.277,3.833 -2.286,7.533 -6.625,7.533c-4.137,0 -6.459,-3.329 -6.459,-7.231c0,-3.871 2.288,-6.56 5.08,-7.773l1.11,1.988c-2.12,0.872 -3.902,2.689 -3.902,5.785c0,2.825 1.48,4.877 4.07,4.877c2.555,0 3.363,-2.02 4.407,-5.217c1.412,-4.268 2.622,-8.104 6.994,-8.104c4.037,0 6.593,3.229 6.593,7.939c0,4.338 -2.186,7.535 -5.752,8.744Zm-15.976,-26.368l21.324,0l0,2.354l-21.324,0l0,5.959l-2.219,0l0,-14.27l2.219,0l0,5.957Zm21.324,-9.394l-23.543,0l0,-2.354l23.543,0l0,2.354Zm-23.543,-13.792l0,-2.556l20.416,-7.332l-20.416,-7.333l0,-2.557l23.543,8.678l0,2.422l-23.543,8.678Zm17.76,-33.215l0,11.165l5.783,2.185l0,2.492l-23.543,-9.05l0,-2.42l23.543,-9.049l0,2.489l-5.783,2.188Zm-2.221,0.841l-12.614,4.742l12.614,4.742l0,-9.484Zm8.004,-7.783l-23.543,0l0,-9.485c0,-3.498 2.857,-6.321 6.322,-6.321c2.186,0 3.97,1.076 5.012,2.756c0.941,-2.22 3.028,-3.768 5.651,-3.768c3.632,0 6.558,2.926 6.558,6.559l0,10.259Zm-6.558,-14.462c-2.389,0 -4.34,1.884 -4.34,4.203l0,7.904l8.679,0l0,-7.904c0,-2.319 -1.917,-4.203 -4.339,-4.203Zm-14.766,12.107l8.208,0l0,-7.13c0,-2.185 -1.817,-3.967 -4.105,-3.967c-2.253,0 -4.103,1.782 -4.103,3.967l0,7.13Zm181.957,-5.689c32.213,0 58.419,-26.206 58.419,-58.419c0,-32.214 -26.206,-58.42 -58.419,-58.42c-32.214,0 -58.42,26.206 -58.42,58.42c0,32.213 26.206,58.419 58.42,58.419Zm-166.416,-25.55l0,11.167l5.783,2.184l0,2.492l-23.543,-9.05l0,-2.421l23.543,-9.047l0,2.489l-5.783,2.186Zm-2.221,0.841l-12.614,4.742l12.614,4.743l0,-9.485Zm8.004,-8.292l-23.543,0l0,-9.416c0,-3.902 3.161,-7.062 7.063,-7.062c3.195,0 5.919,2.151 6.76,5.079l9.72,-5.753l0,2.691l-9.417,5.516l0,6.591l9.417,0l0,2.354Zm-11.637,-2.354l0,-7.062c0,-2.59 -2.186,-4.708 -4.843,-4.708c-2.691,0 -4.844,2.118 -4.844,4.708l0,7.062l9.687,0Zm11.637,-19.12l-23.543,0l0,-2.356l23.543,0l0,2.356Zm0,-8.349l-23.543,0l0,-2.354l23.543,0l0,2.354Zm0,-8.348l-23.543,0l0,-2.354l10.763,0l-10.763,-10.695l0,-3.095l11.436,11.303l12.107,-11.638l0,3.094l-11.401,11.031l11.401,0l0,2.354Z" style="fill:white;"/>
    </g>
</svg>
