<svg xmlns="http://www.w3.org/2000/svg" fill-rule="evenodd" stroke-miterlimit="1.41" viewBox="0 0 1000 353" clip-rule="evenodd" stroke-linejoin="round">

  <g id="logotyyp" fill="#fff" fill-rule="nonzero">
    <path d="M277.75 1.84h5.83v350h-5.83zM901.42 235.07v-37.25h-8.13l-8.67 29.3h-.2l-8.6-29.3h-8.16v37.25h6.47V210.5l.2-.05 8 24.62h4.4l8-24.46.2.04v24.43h6.48zm-46.82-3c2.53-2.34 3.8-5.62 3.8-9.82v-24.43h-6.46v24.38c0 2.68-.65 4.77-1.96 6.26-1.3 1.5-3.1 2.23-5.36 2.23-2.24 0-4.02-.75-5.34-2.24-1.32-1.5-1.98-3.58-1.98-6.26v-24.38h-6.46v24.43c0 4.2 1.26 7.48 3.8 9.83 2.54 2.36 5.87 3.54 9.98 3.54 4.12 0 7.44-1.18 9.98-3.54m-39.46 3h6.46V197.8h-6.46v37.25zm-16.53 0h6.7v-.55c-.3-.45-.47-1.15-.57-2.1-.1-.96-.14-1.92-.14-2.85v-3.42c0-2.25-.46-4.12-1.36-5.65-.9-1.52-2.34-2.6-4.34-3.2 1.8-.84 3.15-1.98 4.1-3.43.93-1.45 1.4-3.16 1.4-5.15 0-3.43-1.07-6.1-3.2-8.02-2.16-1.92-5.13-2.88-8.92-2.88h-12.44v37.25h6.46v-15.1h6.52c1.7 0 3 .55 3.94 1.64.9 1.1 1.37 2.63 1.37 4.6v3.35c0 1.1.02 2.2.08 3.26.07 1.07.2 1.83.4 2.27m-.7-26.06c0 1.95-.46 3.44-1.4 4.5-.9 1.03-2.32 1.56-4.22 1.56h-5.98v-12.3h5.98c1.87 0 3.28.55 4.22 1.68s1.4 2.65 1.4 4.57m-49.4 26.07H771v-4.92h-16.04v-12h13.72v-4.92h-13.72v-10.48H771v-4.93h-22.5v37.25zm-31.34 0h22.5v-4.92h-16.04v-12h13.72v-4.92h-13.72v-10.48h16.05v-4.93h-22.5v37.25zm-15.83-32.32h9.63v-4.93h-25.52v4.93h9.43v32.32h6.46v-32.32zm-36.25 8.52c-.92-.9-1.4-2.14-1.4-3.72 0-1.54.5-2.8 1.44-3.8s2.4-1.52 4.36-1.52c1.94 0 3.4.6 4.4 1.8 1 1.2 1.5 2.8 1.5 4.76h6.2l.06-.2c.08-3.54-.96-6.3-3.12-8.3-2.17-2-5.18-3-9.04-3-3.75 0-6.73.96-8.94 2.85-2.2 1.9-3.3 4.4-3.3 7.48 0 3.17.92 5.55 2.76 7.15 1.84 1.6 4.8 2.96 8.84 4.1 2.64.86 4.47 1.77 5.45 2.7.98.96 1.48 2.2 1.48 3.73 0 1.6-.54 2.9-1.63 3.9-1.1 1-2.7 1.5-4.83 1.5-1.98 0-3.6-.52-4.88-1.56-1.27-1.04-1.9-2.73-1.9-5.08h-6.2l-.1.2c-.1 3.8 1.06 6.66 3.5 8.54 2.42 1.88 5.62 2.82 9.58 2.82 3.94 0 7.1-.92 9.42-2.76 2.33-1.85 3.5-4.37 3.5-7.58 0-3.12-.93-5.5-2.78-7.16-1.85-1.65-4.74-3.04-8.64-4.17-2.9-.9-4.8-1.8-5.74-2.68M653.9 165.1h6.8l-12.42-37.25h-6.68l-12.47 37.26h6.8l2.67-8.4h12.63l2.68 8.4zm-4.2-13.33h-9.57l4.67-14.84h.2l4.7 14.84zM624 197.82v25.7l-.18.08-14.3-25.78h-6.46v37.25h6.46v-25.74l.2-.06 14.3 25.8h6.5v-37.25H624zm-4.43-35.43c2.13-2.2 3.2-5.1 3.2-8.77v-25.78h-6.46v25.73c0 2.17-.46 3.9-1.4 5.2-.9 1.3-2.1 1.94-3.52 1.94-1.66 0-2.98-.54-3.95-1.63-.97-1.1-1.45-2.73-1.45-4.93h-6.24l-.07.2c-.1 3.68.9 6.48 3.03 8.4 2.12 1.92 5.02 2.88 8.68 2.88 3.32 0 6.05-1.1 8.2-3.26m-32.63 72.67h6.46v-37.25h-6.45v37.25zm-22.6-87.33h14.25v-4.92h-14.26v4.92zm4.7 50.08l-8.67 29.3h-.2l-8.6-29.3h-8.15v37.25h6.46V210.5l.18-.05 8.03 24.62h4.4l7.98-24.46.2.04v24.43h6.48v-37.25h-8.12zm-28.17-56.52c-.92-.9-1.38-2.13-1.38-3.72 0-1.53.47-2.8 1.42-3.8s2.4-1.52 4.36-1.52c1.94 0 3.4.6 4.4 1.8 1 1.2 1.5 2.8 1.5 4.76h6.2l.05-.2c.1-3.53-.95-6.3-3.1-8.3-2.18-1.98-5.2-2.98-9.05-2.98-3.75 0-6.73.95-8.93 2.84-2.2 1.9-3.32 4.4-3.32 7.48 0 3.17.93 5.56 2.77 7.15 1.84 1.6 4.8 2.97 8.85 4.1 2.64.88 4.46 1.78 5.44 2.73 1 .94 1.5 2.18 1.5 3.7 0 1.6-.56 2.9-1.64 3.9-1.1 1-2.7 1.5-4.84 1.5-1.98 0-3.6-.52-4.87-1.56s-1.9-2.73-1.9-5.08h-6.2l-.1.18c-.1 3.83 1.05 6.68 3.48 8.55 2.43 1.88 5.63 2.82 9.6 2.82 3.94 0 7.08-.92 9.4-2.76 2.34-1.85 3.5-4.38 3.5-7.6 0-3.1-.9-5.5-2.77-7.15-1.85-1.65-4.73-3.04-8.63-4.17-2.9-.9-4.8-1.78-5.74-2.68m-6.14 67.3c.1-3.54-.95-6.3-3.1-8.3-2.17-2-5.2-3-9.05-3-3.74 0-6.72.96-8.92 2.85-2.2 1.9-3.3 4.4-3.3 7.48 0 3.17.9 5.55 2.75 7.15 1.85 1.6 4.8 2.96 8.84 4.1 2.65.86 4.46 1.77 5.46 2.7 1 .96 1.48 2.2 1.48 3.73 0 1.6-.53 2.9-1.62 3.9-1.1 1-2.7 1.5-4.83 1.5-1.98 0-3.6-.52-4.88-1.56-1.26-1.04-1.9-2.73-1.9-5.08h-6.2l-.1.2c-.1 3.8 1.06 6.66 3.48 8.54 2.44 1.88 5.63 2.82 9.6 2.82 3.95 0 7.1-.92 9.42-2.76 2.33-1.85 3.5-4.37 3.5-7.58 0-3.12-.93-5.5-2.78-7.16-1.87-1.65-4.74-3.04-8.65-4.17-2.9-.9-4.8-1.8-5.73-2.68-.93-.9-1.4-2.14-1.4-3.72 0-1.54.48-2.8 1.43-3.8s2.4-1.52 4.36-1.52c1.95 0 3.42.6 4.4 1.8 1 1.2 1.5 2.8 1.5 4.76h6.2l.06-.2zm-14.26-46.48c2.54-2.36 3.8-5.64 3.8-9.84v-24.43h-6.45v24.4c0 2.67-.66 4.75-1.97 6.24-1.3 1.48-3.1 2.22-5.35 2.22-2.24 0-4.02-.74-5.34-2.23-1.34-1.5-2-3.58-2-6.26v-24.4h-6.46v24.44c0 4.2 1.27 7.48 3.8 9.84 2.54 2.35 5.87 3.53 10 3.53 4.1 0 7.42-1.18 9.96-3.53m-25.33 35.7v24.38c0 2.68-.65 4.77-1.96 6.26-1.3 1.5-3.1 2.23-5.35 2.23-2.24 0-4-.75-5.34-2.24-1.3-1.5-1.97-3.58-1.97-6.26v-24.38h-6.46v24.43c0 4.2 1.26 7.48 3.8 9.83 2.54 2.36 5.87 3.54 9.98 3.54 4.12 0 7.44-1.18 9.98-3.54 2.54-2.35 3.8-5.63 3.8-9.83v-24.43h-6.46zm-10.55-36.98c2.62-2.85 3.94-6.5 3.94-11v-6.7c0-4.48-1.32-8.14-3.94-11-2.62-2.86-5.9-4.3-9.82-4.3h-11.83v37.27h11.83c3.93 0 7.2-1.42 9.82-4.26m-2.53-11.03c0 3-.7 5.5-2.08 7.45-1.4 1.96-3.13 2.93-5.22 2.93h-5.37v-27.4h5.37c2.1 0 3.83.98 5.22 2.95 1.38 1.97 2.07 4.42 2.07 7.35v6.73zm-16.22 63.3c0-4.47-1.3-8.14-3.93-11-2.62-2.85-5.9-4.28-9.82-4.28H440.3v37.25h11.83c3.93 0 7.2-1.42 9.82-4.27 2.62-2.84 3.93-6.5 3.93-10.98v-6.7zm-6.46 6.68c0 3-.7 5.48-2.08 7.44-1.38 1.95-3.12 2.93-5.2 2.93h-5.38v-27.4h5.37c2.1 0 3.83.98 5.2 2.94 1.4 1.96 2.1 4.4 2.1 7.35v6.73zm-12.56-54.67h6.46v-37.25h-6.46v37.26zm-15.22 0h6.68v-.54c-.28-.44-.46-1.15-.56-2.1-.1-.97-.15-1.92-.15-2.85v-3.4c0-2.25-.43-4.14-1.33-5.66-.9-1.53-2.34-2.6-4.35-3.2 1.8-.85 3.16-1.98 4.1-3.43.94-1.44 1.4-3.16 1.4-5.14 0-3.44-1.07-6.1-3.2-8.03-2.15-1.92-5.12-2.88-8.9-2.88h-12.46v37.26h6.47V150h6.52c1.7 0 3 .56 3.93 1.64.92 1.1 1.38 2.62 1.38 4.58v3.36c0 1.1.02 2.2.08 3.26.05 1.06.2 1.82.4 2.27m-.7-26.06c0 1.94-.47 3.44-1.4 4.48-.92 1.04-2.34 1.57-4.23 1.57h-5.97v-12.32h5.98c1.88 0 3.3.56 4.23 1.7.93 1.12 1.4 2.65 1.4 4.56M400.1 165.1h6.8l-12.42-37.25h-6.7l-12.46 37.26h6.82l2.65-8.4h12.62l2.7 8.4zm-4.2-13.33h-9.57l4.66-14.84h.18l4.7 14.84zm-32.57 13.34h6.46v-46.55h-6.47v21.07H345.5v-21.07H339v46.56h6.5v-20.56h17.83v20.57zm6 23.4H339v4.94h11.9v41.63h6.48v-41.63h11.96v-4.93zm29.02 9.32h-22.52v37.25h22.52v-4.92H382.3v-12H396v-4.92h-13.7v-10.48h16.05v-4.93zm16.88 0l-12.47 37.25h6.8l2.67-8.4h12.62l2.7 8.4h6.77l-12.4-37.25h-6.7zm-1.47 23.92l4.67-14.84h.2l4.7 14.84h-9.57zm234.36-23.92h-6.46v37.25h6.46v-37.25z"/>
  </g>
  <g id="Layer-2">
    <clipPath id="_clip1">
      <path d="M47.34 60.2h174.98v77.27H47.34z"/>
    </clipPath>
    <g clip-path="url(#_clip1)">
      <path fill="#fff" d="M107.84 100.27c.18-1.95-2.04-2.65-4.1-2.65-2.08 0-4.3.7-4.12 2.65.2 2.37 2.43 1.24 4.1 1.25 1.7 0 3.9 1.12 4.12-1.25m5.9-14.04c-.6.16-3.36 5.64-3.4 6.15-.13 1.56-.46 3.1-.9 4.6.68 1.4 1.08 3.03.7 4.58-.85 3.35-3.88 2.05-6.4 2.05-3.05 0-6.6 1.13-6.56-3.34.02-2 .9-2.84.42-4.85-.36-1.53-.54-3.08-.55-4.66-2.74-.96-2-3.78-4.5-4.94-3.43-1.58-6.12-7.87-2.28-10.53-.17 2-.3 4.27.9 6.02.6.85 1.47 1.45 2.43 1.83 2.93 1.16 2.15.33 3.1 3.25.7 2.2 3 2.67 4.98 1.84 2.23-.94-1.33-5.58-.2-5.58h2.25c2.67-.5 3.6 1.38 1.5 3.37-2.24 2.07 2.64 2.95 4 2.3 1.18-.56 1.65-1.87 1.8-3.08.28-2.5 1.88-1.37 3.85-2.6 2.56-1.6 2.54-4.7 2.32-7.35 4.37 3.03.53 9.86-3.45 10.96m-22.53 20.94c-1.4 2.63-2.66 6.7-1.25 9.55-1.62-.6-2.92-1.84-3.4-3.53-.2-.73-.24-1.46-.13-2.2-1.23-1.15-2.38-2.43-3.3-3.86-2.3-3.53-2.52-7.63.37-10.9.83-.96 2.78-2.5 2.38-3.95.37 1.36 1.78 4.2.67 5.5-2.97 2.9-1.7 6.63 1.1 9.15.26-.65.56-1.3.9-1.9.6-.76 1.2-2.16.7-3.06.68 1.22 2.75 3.65 1.97 5.17m3.34-32.44h5.88c.52 0 1.05.4 1.27 1.08.18.5.1 1.25 0 1.97-.3-.53-.64-.72-1.1-.72h-1.34c.32.38.5.88.5 1.42 0 1.24-1 2.24-2.23 2.24s-2.24-1-2.24-2.23c0-.54.18-1.04.5-1.42h-1.27c-1.4 0-2.62-1.86-2.62-3.54.77.86 1.57 1.23 2.66 1.23m.93-9.2c.68 0 1.3.3 1.78.9l2.44 3.1c.55.67.72 1.1 1.36 1.2h-2.05c-1.02 0-1.72-.42-2.32-1.1l-2.33-3.06c-.4-.5-.7-.83-1.2-1.05h2.32zm6.14-1.22c1 0 1.94.67 2.43 1.38l3 4.2c.47.7.92 1.1 1.56 1.35h-2.74c-1.07 0-1.7-.48-2.16-1.25l-2.36-3.6c-.9-1.36-1.25-1.7-2.3-2.07h2.56zm7.54 1.22c.7 0 1.32.3 1.8.92l2.44 3.1c.54.66.7 1.1 1.36 1.2h-2.05c-1.03 0-1.73-.43-2.33-1.12l-2.34-3.05c-.38-.5-.7-.83-1.2-1.05h2.32zm3 12.95c0 1.24-1 2.24-2.25 2.24-1.23 0-2.24-1-2.24-2.23 0-.54.2-1.04.5-1.42h-1.33c-.46 0-.8.2-1.1.72-.1-.72-.18-1.46-.02-1.96.23-.67.75-1.07 1.28-1.07h5.87c1.1 0 1.9-.37 2.65-1.22 0 1.7-1.22 3.55-2.6 3.55h-1.3c.33.38.52.88.52 1.42m105.75 35.02c-1.47 0-4.93.67-5.93-.8l-2.25-3.3c.37.5.86.77 1.48.8 1.7 0 6.22-.88 7.36.77-.87-1.26-2.35-4.73-4.2-4.73-1.68 0-6.15.88-7.3-.77l-2.53-3.73c.37.5.86.76 1.48.78 1.7 0 6.2-.88 7.33.78-.86-1.27-2.34-4.73-4.18-4.73-1.5 0-5.12.7-6.13-.78-1.03-1.54-2.08-3.07-3.12-4.6 6.8-.8 15.68-6.52 11.63-14.42-1.88-3.67-5.77-5.97-9.6-7.1-1.6-.48-3.85-.36-5.03-1.72-1.38-1.57-.74-4.13 1.23-4.86-4.13-1.8-10.15.56-10.15 5.6.83 1.45.45 2.27-1.14 2.46-1.45.74-2.8 1.6-4.1 2.6-2.16 1.6-4.1 3.5-5.85 5.55 3.33-.87 6.76-1.32 10.2-1.32-.26-2.78 1.93-5.27 4.75-5.27-1.75.84-4.1 4.2-1.4 5.8 3.57 2.1 2-5.2 6.45-4.48-4 1.87-1.97 7.94 2.28 7.25-.7-2.64 2.65-4.57 4.6-2.64 2.64 2.64-.83 5.22-3.43 5.12-3.78-.15-7.6-1.85-11.38-2.4-4.45-.65-9-.75-13.43.02-16.43 2.83-31.67 9.46-48.57 4.83 2.3 2.53 3.04 5.77 1.65 8.98.02-1.94-.9-3.73-2.13-5.2-1.1-1.3-4.57-3.06-4.22-5.02l.7-3.95c-.1.62.08 1.15.5 1.6.4.53 1.02.98 1.5 1.44.46-3.35-.17-6.72-1.8-9.68-1.54-2.76.4-6.73-.44-10.15-.4 2.97-5.82 5.12-3.57 8.2-1.84-.95-4.26-4.4-1.88-6.04 1.75-1.2 4.54-.9 4.92-3.56-1.54-.5-3.2-.5-4.8-.22-1.48.27-2.4-1.37-3.93-1.86-3.14-1.02-6.3-2.84-9.8-2.5-3.5-.34-6.68 1.48-9.8 2.5-1.2.4-2.26 1.1-3.1 2.06-1.8-.5-3.84-.55-5.65.02.37 2.65 3.16 2.36 4.9 3.56 2.4 1.63-.03 5.1-1.87 6.03 2.25-3.07-3.18-5.24-3.55-8.2-.85 3.43 1.1 7.4-.44 10.16-1.64 2.96-2.27 6.33-1.8 9.68.84-.68 2.2-1.82 2-3.03.23 1.32 1.2 3.86.52 5.16-1.84 3.44-6.23 4.23-6.18 9.02-.67-1.57-.95-3.3-.56-5 .25-1 .67-1.96 1.26-2.83-.98-.53-1.93-1.13-2.83-1.8-2.1-1.54-5.56-4-6.48-6.62-1.4-3.95 4.06-6.92 2.48-11.26-.63-1.73-1.38-2.47-1.9-4.23-.47-1.65-1.85-2.93-3.54-3.26.9 1.38.83 3.22-.17 4.53 1.05 1.38.83 3.4-.5 4.52.5-2.4-.8-5.2-3.28-5.88-.53-2.85-4.18-3.95-6.2-1.85 3.76.28 1.85 2.8 1.1 4.52 2.72-.03 4.8 2.44 4.34 5.1-.57-3-3.62-4.54-6.4-3.48-1.55-1.93-4.64-1.77-5.96.34 5.12.22 1.2 4.04 1.95 7.04.9 3.67 3.67 3.17 6.52 3.17 1 0 1.52 1.23.8 1.95-.94.94-2.12-.5-3.15-.5-2.6 0-2.18 4.97-5 2.2-.4 1.54.36 3.2 1.8 3.9 1.8.9 2.6 2.94 4.83 3.5 2.37.58 4.84-2.1 6.85-.92 1.8 1.05 1.34 3.8-.66 4.27-1 .32-2.57.77-3.43-.05 1.2 1.13 3.83 4.8 5.75 4.37 1.3-.3 3.83-1.4 5-.3l2.83 2.7c-.47-.43-1-.58-1.6-.46-1.3.3-3.85 1.4-5 .3 1.15 1.1 3.54 4.45 5.4 4.04 1.3-.3 3.8-1.4 5-.3l2.83 2.7c-.47-.4-1-.56-1.62-.45-1.3.3-3.83 1.4-5 .3 1.16 1.1 3.56 4.46 5.4 4.04l4.1-.9c-4.9 2.77-11.15 8.58-16.86 9.08-4.38.38-10.28-4.05-13.38 1.24 1.97-.8 4.3-.32 5.8 1.18-3.4-1.42-7.83.2-9.45 3.53-.97 1.97-.03 2.9-1.52 4.34-1.33 1.28-1.35 3.48-.02 4.77 1.02-4.6 6.3 0 6.3-3.7 0-3.26 3-6 6.26-5.48-2.47.58-4.24 2.85-4.24 5.37 0 2.18-3.8 3.52-1.33 6.44 2.13-4.17 5.47-2.47 9.07-3.1-2.06-3 .52-7.23 4.15-6.7-1.77.77-3.75 2.6-3.18 4.74.77 2.88 4.43 1.5 2.36 5.08 2.67-.2 3.87-2.4 5.83-3.73 1.57-1.06 2.87-3.2 1.6-5-3.18-4.48 6.85-3.25 3.23.64 1.5 0 5.22.72 6.24-.8.77-1.13 2.45-5.07 4.07-5.07h3.75c-.42 0-.76.2-1 .53-.92 1.35-2.6 5.33-4.55 5.33 1.62 0 6.1.85 7.17-.8.63-.93 3.58-4.05 3.44-5.07-5.08-2.78-2.58-7.96-2.08-12.26.18-.75.04-1.56-.47-2.15 1 1 3.74 2.93 3.54 4.56-.55 2.96-1.2 5.47 1.87 7.38l1.98 1.25v-7.3h2.77c0 1.98-1.16 8.34.82 9.6 1.1.68 2.95 2.46 4.38 1.85l5-2.18c-.58.23-1.14.2-1.67-.12l-5.74-3.66c2.27-1.92 1.44-3.7 1.16-6.13-.2-.77-.12-1.7.5-2.25 1-1 1.97-2 2.95-3-.38.46-.56 1-.52 1.6.23 2.46 2.53 6.05.64 8.32 1.46.93 5.03 4.3 6.9 3.46l5.24-2.27c-.58.23-1.13.18-1.67-.13l-5.1-3.23c-.65-.43-.63-7.4-1.58-9.25-.4-.6-.5-1.38-.15-2.02l1.95-3.5c-.28.54-.3 1.1-.03 1.65.54 1.1 1.15 2.17 1.62 3.3 2.3-2.06 4.26-5.23 1.87-8-.66-.55-1.23-1.5-1-2.35l1.05-3.88c-.15.6-.02 1.15.37 1.63 1.9 2.22 4.03 4.32 3.95 7.5-.06 2.46-1.28 4.78-2.77 6.7-.7.88-1.46 1.7-2.28 2.46.3.98.52 2.22.3 3.23 1.6 1 5.77 4.9 7.8 4.03l4.46-1.93c-1.34.57-2.9-.42-2.9-1.9 0-2.2 3.1-2.48 4.6-3.04 4.74-1.72 9.27-3.94 13.7-6.3 7.06-3.7 14.12-8.52 21.9-10.53 3.14-.8 6.53-.85 9.43.74 4.34 2.4 3.42 5.42 2.84 9.5-.48 3.46.95 6.72 3.63 8.9 2.4 1.98 9.66 2.78 8.57 6.94 1.5.16 3.08-.26 4.34-1.1 2.13-1.4 2.15-1.7 4.88-1.9 3.8-.3 2.17 5.52-2.4 5.06-3.56-.35-7.18-.24-8.8 3.6-.74 1.77-.2 2.63-1.38 4.07-1 1.2-1.12 2.94-.36 4.3.7-.84 1.56-1.53 2.5-2.08 2.14-1.2 1.14-1.14 2.18-3.1 1.2-2.3 3.9-3.5 6.4-2.88-2.6.33-4.8 2.34-5.36 4.92-.37 1.7-1.33 4.47.23 5.8 1.15-2.52 4.65-3.93 7.28-3.4-1.14-3.44 1.9-6.98 5.47-6.43-1.92.27-3.4 1.96-3.4 3.9 0 1.17 2.03 5.34 2.92 6.07 1.04-5.42 8.78-1.27 10.52-6.36.84-2.47-1.36-3.6-1.13-5.72.27-2.4.07-4.94-.52-7.3 1.3-.17 2.6.43 3.3 1.5 1.16-2.86-1-6.1-4.08-6.1m-82.78 12.17l.73.05c-2.38.68-4.35 2.5-5.25 4.8-2.33.77-3.3 3.63-1.94 5.67 1.72-1.93 4.4-2.22 5.36-4.4.94-2.14 3-3.66 5.33-3.9-3.56 1.48-5.24 5.75-3.64 9.27 1-3.58 4-2.24 6.58-2.24 3.38 0 5.87-3.43 4.8-6.64 2.06.6 2.9 3.1 1.74 4.84 2.6.48 5.3-.76 6.65-3.04.93-1.6.43-2.14 2.04-3.23 1.18-.8 2.23-1.77 3.14-2.87.3 1.45 1.62 4.6.4 5.88 1.1-1.14 4.46-3.46 4.08-5.33-.32-1.55-1.93-5.43-.6-6.8l2.85-2.9c-.4.46-.56 1-.45 1.6.32 1.57 1.93 5.43.6 6.82 1.05-1.08 4.08-3.2 3.7-4.96-.32-1.57-1.93-5.44-.6-6.8l2.85-2.9c-.42.45-.58 1-.47 1.6.32 1.57 1.94 5.42.62 6.8 1.04-1.08 4.06-3.18 3.7-4.95-.36-1.68-.9-3.34-.24-5.02 1-2.53 4.93-3.4 4.93-5.78 0-6.76-13.54-5.5-13-3.25 1.03 4.25-9.94 4.33-12.44 5.35-2.84 1.15-5.14 3.15-6.6 5.83-1.22 2.2-1.64 5.6-3.75 7.18 2.23.56 4.78.03 6.8-.97-.4.7-.98 1.28-1.7 1.7-1.57 1.02-1.26 1.37-2.38 2.76-1.6 2-4.48 3.2-7 2.48-3.17-.92-6.75-2.6-10.04-1.28-2.62 1.04-4.46 3.54-4.8 6.33-2.6.36-4.05 3.38-2.72 5.64 1.7-1.73 4.1-1.98 5.17-3.98 1.1-2.04 3.26-3.34 5.57-3.34m-27.98-30.02c.32-1.72.45-3.38.4-5l-1.55 1.8c-.3-.7-.5-1.15-.7-1.5-.17-.3-.3-.5-.5-.53-.12.07-.27.15-.44.18-.2.05-.46.04-.63.04-.16 0-.43 0-.63-.04-.16-.03-.32-.1-.42-.17-.2.05-.34.25-.5.54-.22.35-.42.8-.72 1.5l-1.55-1.8c-.04 1.62.1 3.28.4 5 1.15-.25 2.32-.34 3.43-.34 1.1 0 2.28.1 3.43.34m68.77-16.7c1.5-1.47 3.14-2.83 4.88-4.05 2.07-1.46 5.34-2.22 5.34-4.64-11.36 1.54-22.03 6.75-33.17 9.42-4.4 1.05-10.23 2.45-14.6.63-1.8-.73-3.27-2.3-2.84-4.38.7-3.3 5.75-.7 3.44 1.8 2.2.22 5.43.1 6.3-2.42.8-2.3-1.08-4.5-3.42-4.4 2.62-1.1 5.6 1.04 5.34 3.88 4.74-.1 10.85-3.45 13.62-7.36-7.9 1.8-15.23-2.52-22.96-1.06-6.68 1.25-12.66 8.05-8.4 14.74 8.83 13.92 34.88.25 46.47-2.15"/>
    </g>
    <clipPath id="_clip2">
      <path d="M47.34 138.15h174.98v77.28H47.34z"/>
    </clipPath>
    <g clip-path="url(#_clip2)">
      <path fill="#fff" d="M107.84 178.22c.17-1.95-2.04-2.64-4.1-2.64-2.08 0-4.3.7-4.12 2.64.2 2.38 2.43 1.25 4.1 1.26 1.68 0 3.9 1.12 4.12-1.26m5.9-14.04c-.62.17-3.36 5.65-3.4 6.16-.13 1.56-.47 3.1-.9 4.6.67 1.4 1.08 3.03.7 4.58-.86 3.35-3.88 2.05-6.4 2.05-3.05 0-6.6 1.12-6.56-3.36 0-1.97.9-2.83.42-4.83-.36-1.54-.54-3.1-.55-4.68-2.75-.97-2-3.8-4.5-4.94-3.43-1.58-6.12-7.87-2.3-10.53-.15 2-.3 4.27.92 6 .6.87 1.46 1.48 2.43 1.86 2.92 1.14 2.15.32 3.08 3.24.7 2.2 3 2.67 5 1.83 2.22-.94-1.34-5.57-.2-5.57h2.25c2.66-.52 3.6 1.38 1.48 3.36-2.2 2.07 2.67 2.95 4.03 2.3 1.18-.56 1.64-1.87 1.8-3.08.28-2.5 1.88-1.37 3.85-2.6 2.56-1.6 2.53-4.7 2.31-7.35 4.36 3.03.53 9.86-3.46 10.95m-22.52 20.95c-1.4 2.63-2.66 6.7-1.25 9.55-1.62-.6-2.93-1.85-3.4-3.53-.2-.72-.24-1.45-.14-2.18-1.23-1.17-2.37-2.44-3.3-3.87-2.3-3.53-2.52-7.63.38-10.9.83-.96 2.78-2.5 2.38-3.95.36 1.37 1.78 4.2.67 5.5-2.97 2.9-1.7 6.64 1.1 9.16.25-.65.56-1.28.9-1.9.6-.75 1.2-2.15.7-3.05.67 1.23 2.75 3.66 1.97 5.18m3.34-32.44h5.87c.53 0 1.05.4 1.28 1.07.17.5.08 1.24 0 1.96-.3-.53-.65-.72-1.1-.72h-1.34c.3.4.5.9.5 1.43 0 1.24-1 2.24-2.23 2.24-1.24 0-2.24-1-2.24-2.24 0-.54.18-1.04.5-1.42h-1.28c-1.4 0-2.62-1.86-2.62-3.53.76.85 1.57 1.22 2.66 1.22m.92-9.22c.7 0 1.32.3 1.8.92l2.44 3.1c.54.66.7 1.1 1.36 1.2h-2.05c-1.03 0-1.73-.43-2.33-1.12l-2.34-3.05c-.38-.5-.7-.83-1.2-1.05h2.32zm6.15-1.2c1 0 1.94.65 2.44 1.36l3 4.2c.46.7.9 1.08 1.55 1.35h-2.74c-1.05 0-1.7-.5-2.15-1.26l-2.36-3.6c-.9-1.36-1.25-1.7-2.28-2.07h2.53zm7.55 1.2c.7 0 1.3.3 1.8.92l2.43 3.1c.56.66.73 1.1 1.37 1.2h-2.05c-1.02 0-1.72-.43-2.32-1.12l-2.34-3.05c-.4-.5-.7-.83-1.2-1.05h2.32zm3 12.95c0 1.24-1 2.24-2.25 2.24-1.24 0-2.24-1-2.24-2.24 0-.54.18-1.04.5-1.42h-1.34c-.45 0-.8.2-1.1.73-.08-.72-.18-1.47 0-1.96.2-.68.74-1.08 1.26-1.08h5.88c1.08 0 1.9-.38 2.65-1.23 0 1.67-1.23 3.54-2.62 3.54h-1.28c.32.4.52.9.52 1.43m105.75 35.02c-1.48 0-4.94.68-5.94-.78-.74-1.1-1.5-2.2-2.23-3.3.36.5.86.76 1.48.78 1.68 0 6.22-.88 7.35.78-.86-1.26-2.34-4.73-4.18-4.73-1.68 0-6.16.88-7.3-.77l-2.53-3.73c.36.5.86.76 1.48.78 1.7 0 6.18-.88 7.32.77-.85-1.26-2.33-4.72-4.17-4.72-1.5 0-5.12.7-6.13-.8-1.04-1.5-2.08-3.04-3.12-4.56 6.8-.82 15.67-6.53 11.63-14.44-1.88-3.66-5.78-5.96-9.6-7.1-1.6-.47-3.85-.35-5.04-1.7-1.37-1.58-.74-4.14 1.23-4.88-4.13-1.78-10.14.57-10.14 5.6.83 1.46.45 2.28-1.15 2.47-1.44.74-2.8 1.6-4.1 2.58-2.15 1.62-4.1 3.5-5.83 5.57 3.32-.88 6.76-1.33 10.2-1.33-.27-2.78 1.92-5.28 4.74-5.28-1.76.83-4.1 4.2-1.4 5.8 3.57 2.1 2-5.2 6.44-4.48-4 1.86-1.96 7.94 2.28 7.25-.7-2.64 2.66-4.57 4.6-2.64 2.65 2.63-.83 5.2-3.42 5.1-3.78-.14-7.6-1.85-11.4-2.4-4.43-.65-8.98-.74-13.42.02-16.4 2.84-31.65 9.46-48.55 4.83 2.3 2.54 3.03 5.78 1.64 9 .02-1.95-.9-3.74-2.12-5.2-1.1-1.3-4.58-3.07-4.23-5.03l.7-3.95c-.08.6.1 1.14.52 1.58.37.54 1 1 1.47 1.45.48-3.36-.14-6.73-1.78-9.68-1.53-2.77.4-6.73-.44-10.15-.38 2.95-5.8 5.1-3.55 8.18-1.84-.94-4.26-4.4-1.9-6.03 1.76-1.2 4.55-.9 4.94-3.56-1.55-.5-3.22-.5-4.8-.22-1.5.27-2.4-1.37-3.94-1.86-3.14-1.03-6.3-2.84-9.8-2.5-3.5-.34-6.67 1.47-9.8 2.5-1.2.38-2.26 1.1-3.1 2.06-1.8-.5-3.84-.55-5.65.02.4 2.65 3.18 2.36 4.93 3.56 2.38 1.63-.04 5.1-1.88 6.03 2.26-3.07-3.17-5.23-3.55-8.18-.84 3.42 1.1 7.38-.44 10.15-1.64 2.95-2.26 6.32-1.8 9.68.85-.68 2.22-1.82 2-3.03.23 1.3 1.22 3.85.53 5.14-1.85 3.46-6.23 4.25-6.18 9.04-.68-1.57-.96-3.3-.57-5 .26-1 .68-1.96 1.27-2.83-.98-.52-1.92-1.13-2.83-1.8-2.1-1.53-5.55-4-6.48-6.6-1.4-3.96 4.06-6.93 2.5-11.27-.65-1.74-1.4-2.48-1.9-4.23-.48-1.65-1.87-2.93-3.56-3.26.9 1.38.82 3.22-.18 4.53 1.05 1.36.84 3.4-.5 4.5.5-2.4-.8-5.2-3.27-5.87-.53-2.85-4.18-3.95-6.2-1.86 3.75.3 1.84 2.82 1.1 4.54 2.72-.03 4.8 2.44 4.33 5.1-.55-3-3.6-4.55-6.4-3.48-1.54-1.93-4.62-1.77-5.94.34 5.1.22 1.2 4.04 1.95 7.03.9 3.67 3.67 3.17 6.5 3.17 1.02 0 1.54 1.25.82 1.96-.94.95-2.13-.5-3.15-.5-2.6 0-2.2 4.98-5 2.22-.42 1.53.36 3.2 1.78 3.9 1.82.88 2.6 2.92 4.84 3.48 2.36.6 4.84-2.1 6.84-.92 1.8 1.06 1.34 3.82-.65 4.27-1 .32-2.57.78-3.43-.04 1.2 1.13 3.82 4.8 5.75 4.38 1.3-.3 3.83-1.4 5-.3l2.82 2.7c-.46-.43-1-.58-1.6-.46-1.3.28-3.85 1.4-5 .3 1.15 1.1 3.54 4.45 5.4 4.04 1.3-.3 3.82-1.4 5-.3l2.83 2.7c-.47-.42-1-.57-1.6-.45-1.3.3-3.85 1.4-5 .3 1.14 1.1 3.55 4.47 5.4 4.05l4.1-.9c-4.93 2.78-11.16 8.6-16.88 9.08-4.4.4-10.28-4.04-13.4 1.25 2-.8 4.3-.32 5.82 1.18-3.4-1.43-7.83.2-9.46 3.53-.97 1.96-.02 2.9-1.52 4.32-1.33 1.3-1.34 3.5-.02 4.78 1.03-4.6 6.3 0 6.3-3.7 0-3.27 3-6 6.26-5.48-2.45.58-4.23 2.85-4.23 5.37 0 2.17-3.78 3.5-1.33 6.43 2.14-4.18 5.48-2.47 9.07-3.1-2.07-3 .52-7.23 4.15-6.7-1.77.76-3.75 2.6-3.18 4.74.76 2.87 4.42 1.48 2.35 5.07 2.68-.2 3.87-2.4 5.84-3.73 1.57-1.06 2.86-3.2 1.6-5-3.18-4.47 6.84-3.24 3.23.64 1.5 0 5.22.74 6.23-.78.77-1.13 2.46-5.07 4.07-5.07h3.75c-.43 0-.76.18-1 .52-.92 1.34-2.6 5.32-4.56 5.32 1.6 0 6.1.86 7.17-.78.63-.93 3.57-4.06 3.44-5.07-5.08-2.8-2.58-7.97-2.08-12.27.17-.75.04-1.56-.47-2.16 1 1.02 3.73 2.93 3.54 4.57-.55 2.96-1.2 5.47 1.86 7.38l1.98 1.25v-7.3h2.77c0 1.97-1.15 8.33.84 9.57 1.1.7 2.95 2.48 4.38 1.86l5-2.17c-.58.23-1.14.2-1.68-.13l-5.73-3.65c2.27-1.9 1.43-3.7 1.15-6.12-.2-.77-.1-1.7.52-2.25l2.93-3c-.4.45-.56.98-.53 1.58.24 2.48 2.53 6.07.65 8.34 1.45.93 5.03 4.28 6.9 3.46l5.23-2.27c-.57.2-1.13.17-1.66-.15l-5.1-3.23c-.66-.42-.64-7.4-1.6-9.25-.37-.6-.5-1.37-.13-2l1.94-3.52c-.26.54-.27 1.1-.02 1.66.56 1.1 1.17 2.17 1.63 3.3 2.3-2.06 4.27-5.22 1.88-8-.64-.54-1.22-1.48-.98-2.34l1.04-3.88c-.14.6-.02 1.14.38 1.63 1.9 2.22 4.03 4.33 3.94 7.5-.06 2.47-1.28 4.8-2.77 6.7-.7.9-1.46 1.7-2.28 2.47.3.97.5 2.2.3 3.22 1.6 1 5.77 4.9 7.8 4.02 1.5-.65 2.97-1.3 4.46-1.93-1.34.56-2.9-.44-2.9-1.9 0-2.23 3.1-2.5 4.6-3.05 4.74-1.72 9.26-3.93 13.7-6.3 7.05-3.7 14.12-8.52 21.9-10.52 3.14-.8 6.52-.86 9.43.74 4.34 2.38 3.4 5.4 2.84 9.5-.5 3.45.94 6.7 3.62 8.9 2.4 1.96 9.66 2.77 8.57 6.93 1.5.16 3.1-.27 4.35-1.1 2.13-1.4 2.15-1.7 4.88-1.9 3.8-.3 2.16 5.52-2.4 5.06-3.57-.36-7.2-.25-8.8 3.6-.74 1.77-.2 2.63-1.4 4.07-.97 1.2-1.1 2.94-.35 4.3.73-.85 1.57-1.54 2.53-2.08 2.12-1.2 1.13-1.13 2.16-3.1 1.2-2.28 3.9-3.5 6.4-2.88-2.6.33-4.8 2.35-5.37 4.93-.36 1.7-1.32 4.47.24 5.8 1.15-2.52 4.65-3.93 7.27-3.4-1.14-3.44 1.9-7 5.47-6.43-1.9.26-3.37 1.94-3.37 3.88 0 1.18 2.02 5.35 2.9 6.08 1.04-5.42 8.8-1.27 10.52-6.36.85-2.48-1.35-3.62-1.12-5.73.27-2.4.07-4.94-.52-7.3 1.3-.17 2.58.43 3.3 1.5 1.16-2.86-1-6.1-4.08-6.1m-82.78 12.17c.24.03.48.04.72.05-2.38.7-4.35 2.5-5.25 4.8-2.32.78-3.3 3.64-1.93 5.67 1.73-1.92 4.42-2.2 5.37-4.4.93-2.14 3-3.65 5.33-3.9-3.56 1.5-5.24 5.76-3.65 9.28 1-3.58 4-2.24 6.6-2.24 3.36 0 5.84-3.43 4.77-6.64 2.05.6 2.9 3.1 1.73 4.84 2.6.48 5.3-.76 6.65-3.04.95-1.6.44-2.14 2.05-3.23 1.18-.8 2.23-1.78 3.14-2.88.3 1.45 1.63 4.6.4 5.88 1.12-1.14 4.47-3.47 4.1-5.33-.33-1.56-1.95-5.44-.6-6.8.94-.98 1.9-1.95 2.84-2.9-.4.45-.57 1-.46 1.6.32 1.56 1.93 5.42.62 6.8 1.04-1.08 4.06-3.2 3.68-4.96-.3-1.55-1.93-5.42-.6-6.8.95-.95 1.9-1.92 2.85-2.9-.43.47-.58 1-.47 1.62.32 1.57 1.93 5.4.6 6.8 1.06-1.08 4.08-3.18 3.7-4.96-.34-1.68-.9-3.34-.23-5.03 1-2.52 4.93-3.38 4.93-5.78 0-6.75-13.54-5.5-13-3.24 1.03 4.26-9.94 4.34-12.45 5.36-2.82 1.15-5.13 3.14-6.6 5.83-1.2 2.2-1.63 5.58-3.74 7.17 2.24.55 4.8.02 6.8-1-.4.72-.97 1.3-1.7 1.72-1.56 1-1.26 1.35-2.37 2.75-1.6 2-4.48 3.2-7 2.5-3.18-.93-6.76-2.6-10.05-1.3-2.6 1.05-4.46 3.55-4.8 6.33-2.6.37-4.04 3.4-2.7 5.64 1.7-1.73 4.07-1.97 5.15-3.97 1.1-2.04 3.26-3.34 5.57-3.34m-28-30c.33-1.72.46-3.4.4-5l-1.54 1.8c-.3-.7-.5-1.15-.7-1.5-.17-.3-.32-.5-.52-.53-.1.05-.26.14-.43.17-.2.05-.46.03-.62.03-.16 0-.43.02-.63-.03-.17-.03-.32-.12-.42-.17-.2.03-.35.23-.52.53-.2.35-.4.8-.7 1.5l-1.55-1.8c-.05 1.6.08 3.28.4 5 1.14-.25 2.3-.34 3.43-.34 1.1 0 2.28.1 3.42.34m68.77-16.7c1.5-1.47 3.15-2.84 4.88-4.06 2.06-1.44 5.33-2.2 5.33-4.62-11.36 1.54-22.02 6.74-33.17 9.4-4.4 1.07-10.23 2.47-14.6.65-1.8-.74-3.27-2.3-2.83-4.4.7-3.28 5.75-.7 3.43 1.8 2.2.23 5.44.1 6.3-2.4.82-2.3-1.07-4.53-3.42-4.4 2.63-1.12 5.6 1.03 5.35 3.87 4.74-.1 10.85-3.46 13.62-7.36-7.92 1.8-15.24-2.53-22.97-1.07-6.67 1.27-12.66 8.07-8.4 14.76 8.83 13.92 34.88.25 46.47-2.15"/>
    </g>
    <g>
      <clipPath id="_clip3">
        <path d="M47.34 216.42h174.98v77.28H47.34z"/>
      </clipPath>
      <g clip-path="url(#_clip3)">
        <path fill="#fff" d="M107.84 256.5c.17-1.95-2.04-2.65-4.1-2.65-2.08 0-4.3.7-4.12 2.65.2 2.37 2.43 1.24 4.1 1.25 1.68 0 3.9 1.12 4.12-1.25m5.9-14.04c-.62.16-3.36 5.64-3.4 6.15-.13 1.57-.47 3.1-.9 4.6.67 1.4 1.08 3.04.7 4.6-.86 3.34-3.88 2.04-6.4 2.04-3.05 0-6.6 1.12-6.56-3.35 0-2 .9-2.85.42-4.86-.36-1.54-.54-3.1-.55-4.67-2.75-.96-2-3.78-4.5-4.94-3.43-1.58-6.12-7.87-2.3-10.53-.15 2-.3 4.27.92 6.02.6.86 1.46 1.46 2.43 1.84 2.92 1.16 2.15.33 3.08 3.25.7 2.2 3 2.68 5 1.85 2.22-.94-1.34-5.58-.2-5.58h2.25c2.66-.5 3.6 1.38 1.48 3.37-2.2 2.06 2.67 2.94 4.03 2.3 1.18-.57 1.64-1.88 1.8-3.1.28-2.5 1.88-1.35 3.85-2.6 2.56-1.6 2.53-4.68 2.31-7.34 4.36 3.03.53 9.86-3.46 10.96M91.22 263.4c-1.4 2.64-2.66 6.7-1.25 9.55-1.62-.6-2.93-1.84-3.4-3.53-.2-.7-.24-1.45-.14-2.18-1.23-1.16-2.37-2.44-3.3-3.86-2.3-3.54-2.52-7.64.38-10.9.83-.97 2.78-2.5 2.38-3.96.36 1.37 1.78 4.2.67 5.5-2.97 2.9-1.7 6.64 1.1 9.16.25-.65.56-1.3.9-1.9.6-.76 1.2-2.15.7-3.06.67 1.23 2.75 3.66 1.97 5.18m3.34-32.44h5.87c.53 0 1.05.4 1.28 1.08.17.5.08 1.24 0 1.96-.3-.53-.65-.72-1.1-.72h-1.34c.3.38.5.88.5 1.42 0 1.24-1 2.24-2.23 2.24-1.24 0-2.24-1-2.24-2.24 0-.54.18-1.04.5-1.42h-1.28c-1.4 0-2.62-1.86-2.62-3.54.76.85 1.57 1.22 2.66 1.22m.92-9.2c.7 0 1.32.3 1.8.9l2.44 3.1c.54.67.7 1.1 1.36 1.2h-2.05c-1.03 0-1.73-.42-2.33-1.1l-2.34-3.06c-.38-.48-.7-.82-1.2-1.05h2.32zm6.15-1.2c1 0 1.94.64 2.44 1.35l3 4.22c.46.7.9 1.08 1.55 1.34h-2.74c-1.05 0-1.7-.48-2.15-1.24l-2.36-3.62c-.9-1.35-1.25-1.68-2.28-2.05h2.53zm7.55 1.2c.7 0 1.3.3 1.8.9l2.43 3.1c.56.67.73 1.1 1.37 1.2h-2.05c-1.02 0-1.72-.42-2.32-1.1l-2.34-3.06c-.4-.48-.7-.82-1.2-1.05h2.32zm3 12.94c0 1.24-1 2.24-2.25 2.24-1.24 0-2.24-1-2.24-2.24 0-.54.18-1.04.5-1.42h-1.34c-.45 0-.8.2-1.1.72-.08-.72-.18-1.46 0-1.96.2-.68.74-1.08 1.26-1.08h5.88c1.08 0 1.9-.37 2.65-1.22 0 1.68-1.23 3.54-2.62 3.54h-1.28c.32.38.52.88.52 1.42m105.75 35.02c-1.48 0-4.94.68-5.94-.78-.74-1.1-1.5-2.2-2.23-3.3.36.5.86.77 1.48.78 1.68 0 6.22-.87 7.35.78-.86-1.26-2.34-4.73-4.18-4.73-1.68 0-6.16.88-7.3-.77l-2.53-3.73c.36.5.86.76 1.48.78 1.7 0 6.18-.88 7.32.78-.85-1.27-2.33-4.73-4.17-4.73-1.5 0-5.12.7-6.13-.78l-3.12-4.58c6.8-.82 15.67-6.53 11.63-14.43-1.88-3.66-5.78-5.96-9.6-7.1-1.6-.47-3.85-.35-5.04-1.7-1.37-1.58-.74-4.14 1.23-4.87-4.13-1.8-10.14.56-10.14 5.6.83 1.45.45 2.27-1.15 2.46-1.44.73-2.8 1.6-4.1 2.58-2.15 1.62-4.1 3.5-5.83 5.56 3.32-.88 6.76-1.33 10.2-1.33-.27-2.77 1.92-5.26 4.74-5.26-1.76.83-4.1 4.2-1.4 5.8 3.57 2.08 2-5.2 6.44-4.5-4 1.88-1.96 7.95 2.28 7.26-.7-2.64 2.66-4.57 4.6-2.64 2.65 2.64-.83 5.22-3.42 5.12-3.78-.15-7.6-1.85-11.4-2.4-4.43-.65-8.98-.75-13.42.02-16.4 2.83-31.65 9.46-48.55 4.83 2.3 2.53 3.03 5.77 1.64 8.98.02-1.93-.9-3.72-2.12-5.18-1.1-1.3-4.58-3.07-4.23-5.03l.7-3.96c-.08.6.1 1.14.52 1.6.37.52 1 .97 1.47 1.43.48-3.35-.14-6.72-1.78-9.68-1.53-2.77.4-6.74-.44-10.16-.38 2.96-5.8 5.1-3.55 8.18-1.84-.94-4.26-4.4-1.9-6.03 1.76-1.2 4.55-.92 4.94-3.57-1.55-.5-3.22-.5-4.8-.22-1.5.28-2.4-1.36-3.94-1.85-3.14-1.02-6.3-2.84-9.8-2.5-3.5-.34-6.67 1.48-9.8 2.5-1.2.4-2.26 1.1-3.1 2.06-1.8-.48-3.84-.54-5.65.03.4 2.65 3.18 2.36 4.93 3.56 2.38 1.62-.04 5.1-1.88 6.02 2.26-3.06-3.17-5.23-3.55-8.18-.84 3.42 1.1 7.4-.44 10.15-1.64 2.95-2.26 6.32-1.8 9.67.85-.68 2.22-1.82 2-3.03.23 1.3 1.22 3.85.53 5.15-1.85 3.43-6.23 4.22-6.18 9-.68-1.56-.96-3.3-.57-4.98.26-1.02.68-1.97 1.27-2.84-.98-.53-1.92-1.13-2.83-1.8-2.1-1.53-5.55-4-6.48-6.62-1.4-3.95 4.06-6.92 2.5-11.26-.65-1.73-1.4-2.47-1.9-4.23-.48-1.64-1.87-2.93-3.56-3.26.9 1.4.82 3.23-.18 4.54 1.05 1.37.84 3.4-.5 4.5.5-2.4-.8-5.2-3.27-5.87-.53-2.85-4.18-3.95-6.2-1.85 3.75.3 1.84 2.82 1.1 4.53 2.72-.03 4.8 2.44 4.33 5.1-.55-3-3.6-4.55-6.4-3.48-1.54-1.93-4.62-1.77-5.94.34 5.1.23 1.2 4.05 1.95 7.05.9 3.67 3.67 3.17 6.5 3.17 1.02 0 1.54 1.24.82 1.96-.94.94-2.13-.5-3.15-.5-2.6 0-2.2 4.97-5 2.2-.42 1.54.36 3.2 1.78 3.9 1.82.9 2.6 2.94 4.84 3.5 2.36.58 4.84-2.1 6.84-.92 1.8 1.05 1.34 3.8-.65 4.27-1 .32-2.57.77-3.43-.05 1.2 1.13 3.82 4.8 5.75 4.37 1.3-.3 3.83-1.4 5-.3l2.82 2.7c-.46-.43-1-.58-1.6-.46-1.3.28-3.85 1.4-5 .3 1.15 1.1 3.54 4.44 5.4 4.03 1.3-.3 3.82-1.4 5-.3l2.83 2.7c-.47-.4-1-.56-1.6-.45-1.3.3-3.85 1.4-5 .3 1.14 1.1 3.55 4.46 5.4 4.04l4.1-.9c-4.93 2.8-11.16 8.6-16.88 9.1-4.4.37-10.28-4.06-13.4 1.23 2-.78 4.3-.32 5.82 1.2-3.4-1.45-7.83.2-9.46 3.5-.97 1.98-.02 2.9-1.52 4.35-1.33 1.28-1.34 3.48-.02 4.77 1.03-4.6 6.3 0 6.3-3.7 0-3.26 3-6 6.26-5.48-2.45.57-4.23 2.84-4.23 5.36 0 2.18-3.78 3.52-1.33 6.44 2.14-4.17 5.48-2.47 9.07-3.1-2.07-3 .52-7.23 4.15-6.68-1.77.75-3.75 2.58-3.18 4.72.76 2.87 4.42 1.48 2.35 5.07 2.68-.2 3.87-2.4 5.84-3.72 1.57-1.06 2.86-3.2 1.6-5-3.18-4.48 6.84-3.25 3.23.64 1.5 0 5.22.73 6.23-.8.77-1.12 2.46-5.06 4.07-5.06h3.75c-.43 0-.76.2-1 .53-.92 1.34-2.6 5.32-4.56 5.32 1.6 0 6.1.86 7.17-.8.63-.92 3.57-4.04 3.44-5.06-5.08-2.78-2.58-7.96-2.08-12.26.17-.75.04-1.56-.47-2.15 1 1 3.73 2.92 3.54 4.56-.55 2.97-1.2 5.48 1.86 7.4l1.98 1.24v-7.3h2.77c0 1.97-1.15 8.33.84 9.58 1.1.7 2.95 2.47 4.38 1.85l5-2.17c-.58.23-1.14.2-1.68-.12l-5.73-3.66c2.27-1.9 1.43-3.7 1.15-6.12-.2-.77-.1-1.7.52-2.25l2.93-3c-.4.45-.56.98-.53 1.6.24 2.46 2.53 6.05.65 8.32 1.45.93 5.03 4.3 6.9 3.46l5.23-2.27c-.57.23-1.13.18-1.66-.13L118 273c-.66-.43-.64-7.4-1.6-9.26-.37-.6-.5-1.37-.13-2l1.94-3.52c-.26.54-.27 1.1-.02 1.66.56 1.1 1.17 2.17 1.63 3.3 2.3-2.06 4.27-5.23 1.88-8-.64-.55-1.22-1.5-.98-2.35l1.04-3.88c-.14.6-.02 1.15.38 1.63 1.9 2.22 4.03 4.32 3.94 7.48-.06 2.48-1.28 4.8-2.77 6.7-.7.9-1.46 1.72-2.28 2.48.3.97.5 2.2.3 3.22 1.6 1 5.77 4.9 7.8 4.03l4.46-1.94c-1.34.57-2.9-.42-2.9-1.9 0-2.2 3.1-2.5 4.6-3.04 4.74-1.7 9.26-3.93 13.7-6.28 7.05-3.72 14.12-8.53 21.9-10.54 3.14-.8 6.52-.85 9.43.74 4.34 2.38 3.4 5.4 2.84 9.5-.5 3.45.94 6.7 3.62 8.9 2.4 1.96 9.66 2.77 8.57 6.93 1.5.16 3.1-.26 4.35-1.1 2.13-1.4 2.15-1.7 4.88-1.9 3.8-.3 2.16 5.52-2.4 5.06-3.57-.35-7.2-.25-8.8 3.6-.74 1.77-.2 2.63-1.4 4.07-.97 1.2-1.1 2.94-.35 4.3.73-.85 1.57-1.53 2.53-2.08 2.12-1.2 1.13-1.13 2.16-3.1 1.2-2.28 3.9-3.5 6.4-2.87-2.6.33-4.8 2.34-5.37 4.92-.36 1.7-1.32 4.47.24 5.8 1.15-2.52 4.65-3.93 7.27-3.4-1.14-3.44 1.9-6.98 5.47-6.43-1.9.26-3.37 1.95-3.37 3.88 0 1.18 2.02 5.35 2.9 6.08 1.04-5.42 8.8-1.27 10.52-6.36.85-2.48-1.35-3.62-1.12-5.73.27-2.4.07-4.93-.52-7.28 1.3-.18 2.58.42 3.3 1.5 1.16-2.87-1-6.1-4.08-6.1m-82.78 12.16l.72.05c-2.38.68-4.35 2.5-5.25 4.8-2.32.77-3.3 3.63-1.93 5.67 1.73-1.93 4.42-2.22 5.37-4.4.93-2.14 3-3.66 5.33-3.9-3.56 1.48-5.24 5.75-3.65 9.27 1-3.58 4-2.24 6.6-2.24 3.36 0 5.84-3.43 4.77-6.64 2.05.58 2.9 3.1 1.73 4.83 2.6.48 5.3-.76 6.65-3.04.95-1.6.44-2.15 2.05-3.24 1.18-.8 2.23-1.77 3.14-2.87.3 1.44 1.63 4.6.4 5.87 1.12-1.14 4.47-3.46 4.1-5.33-.33-1.56-1.95-5.44-.6-6.8.94-.98 1.9-1.94 2.84-2.9-.4.45-.57 1-.46 1.6.32 1.56 1.93 5.42.62 6.8 1.04-1.07 4.06-3.2 3.68-4.95-.3-1.58-1.93-5.45-.6-6.8l2.85-2.92c-.43.46-.58 1-.47 1.6.32 1.58 1.93 5.43.6 6.82 1.06-1.1 4.08-3.2 3.7-4.96-.34-1.7-.9-3.35-.23-5.04 1-2.52 4.93-3.38 4.93-5.77 0-6.76-13.54-5.5-13-3.25 1.03 4.25-9.94 4.33-12.45 5.35-2.82 1.15-5.13 3.15-6.6 5.83-1.2 2.2-1.63 5.6-3.74 7.18 2.24.55 4.8.02 6.8-1-.4.72-.97 1.3-1.7 1.72-1.56 1.02-1.26 1.37-2.37 2.76-1.6 2-4.48 3.22-7 2.5-3.18-.93-6.76-2.6-10.05-1.3-2.6 1.05-4.46 3.55-4.8 6.34-2.6.36-4.04 3.38-2.7 5.64 1.7-1.73 4.07-1.98 5.15-3.98 1.1-2.03 3.26-3.33 5.57-3.33m-28-30.03c.33-1.72.46-3.38.4-5l-1.54 1.8c-.3-.7-.5-1.15-.7-1.5-.17-.3-.32-.5-.52-.53-.1.06-.26.14-.43.17-.2.06-.46.05-.62.05-.16 0-.43 0-.63-.04-.17-.02-.32-.1-.42-.16-.2.04-.35.24-.52.53-.2.35-.4.8-.7 1.5l-1.55-1.8c-.05 1.62.08 3.28.4 5 1.14-.25 2.3-.34 3.43-.34 1.1 0 2.28.1 3.42.34m68.77-16.7c1.5-1.47 3.15-2.83 4.88-4.05 2.06-1.45 5.33-2.2 5.33-4.63-11.36 1.53-22.02 6.74-33.17 9.4-4.4 1.06-10.23 2.46-14.6.64-1.8-.74-3.27-2.3-2.83-4.4.7-3.28 5.75-.7 3.43 1.8 2.2.23 5.44.1 6.3-2.4.82-2.3-1.07-4.52-3.42-4.4 2.63-1.12 5.6 1.04 5.35 3.88 4.74-.1 10.85-3.46 13.62-7.37-7.92 1.8-15.24-2.52-22.97-1.06-6.67 1.24-12.66 8.04-8.4 14.73 8.83 13.92 34.88.25 46.47-2.15"/>
      </g>
    </g>
  </g>
</svg>
