<svg xmlns="http://www.w3.org/2000/svg" fill-rule="evenodd" stroke-miterlimit="1.41" viewBox="0 0 342 109" clip-rule="evenodd" stroke-linejoin="round">
  <g id="logotyyp" fill="#aeafb2" fill-rule="nonzero">
    <path d="M142.65 68.8V41.7c0-4-.77-6.9-2.3-8.75-1.53-1.84-4.04-2.76-7.5-2.76-1.6 0-3.33.44-5.15 1.35-1.82.9-3.25 2.03-4.27 3.37V68.8H112.5V21.92h7.87l2 4.38c3-3.5 7.38-5.26 13.18-5.26 5.58 0 9.98 1.68 13.2 5.02 3.23 3.34 4.84 8 4.84 13.98V68.8h-10.95zM191.08 68.8V41.7c0-4-.76-6.9-2.3-8.75-1.53-1.84-4.03-2.76-7.5-2.76-1.6 0-3.32.44-5.14 1.35-1.83.9-3.25 2.03-4.27 3.37V68.8h-10.95V21.92h7.88l2.02 4.38c2.97-3.5 7.37-5.26 13.17-5.26 5.56 0 9.96 1.68 13.2 5.02 3.2 3.34 4.82 8 4.82 13.98V68.8h-10.94zM217.68 45.25c0 10.33 3.7 15.5 11.16 15.5 3.4 0 6.12-1.35 8.12-4.03 2-2.7 3-6.5 3-11.47 0-10.2-3.7-15.28-11.12-15.28-3.42 0-6.13 1.34-8.14 4.03-2.02 2.68-3.02 6.43-3.02 11.25m-11.38 0c0-7.15 2.06-12.97 6.2-17.47 4.12-4.5 9.57-6.74 16.34-6.74 7.1 0 12.65 2.16 16.58 6.48 3.94 4.32 5.9 10.23 5.9 17.73 0 7.47-2 13.4-6 17.8-4.02 4.42-9.5 6.62-16.48 6.62-7.12 0-12.66-2.23-16.6-6.67-3.97-4.45-5.94-10.37-5.94-17.75M275.04 69.67h-3.94l-21.18-47.75h12l11.2 28.62 12.03-28.62h11.6l-21.7 47.75zM307.15 40.48h23.02c-.76-6.86-4.55-10.3-11.38-10.3-6.25 0-10.13 3.44-11.65 10.3m33.1 8.23h-33.5c.2 3.74 1.5 6.64 3.86 8.71 2.37 2.1 5.55 3.12 9.55 3.12 5 0 8.78-1.3 11.38-3.9l4.25 8.37c-3.86 3.1-9.6 4.67-17.25 4.67-7.15 0-12.8-2.1-16.96-6.28-4.16-4.2-6.24-10.04-6.24-17.54 0-7.38 2.28-13.36 6.85-17.95 4.57-4.57 10.05-6.86 16.44-6.86 6.8 0 12.25 2.03 16.37 6.1 4.1 4.04 6.16 9.2 6.16 15.48 0 1.34-.3 3.37-.92 6.1M104.23 28.32v-6.4H93.16V32.7l11.07-4.38zM93.16 35.46V68.8h11.07V31.08l-11.07 4.38z"/>
  </g>
  <g id="logo" fill-rule="nonzero">
    <path fill="url(#_Linear1)" d="M58.88 23.2l.37 35.52 15.73 34.15V0l-16.1 23.2z"/>
    <path fill="url(#_Linear2)" d="M1 92.87L41.32 57.4l.12-34.2L1 0v92.87z"/>
  </g>
  <g id="kutseharidus" fill="#62a738" fill-rule="nonzero">
    <path d="M107.77 106.53l-6.53-10.04-2.48 2.62v7.4l-5.18.02V76.07l5.18-1.24v18.02l7.4-8.5h6.23l-7.5 8.4 9.02 13.77h-6.15zM130.06 106.56v-1.87c-.73.6-2.66 2.25-6.57 2.25-5.16 0-7.74-2.73-7.74-8.2v-14.4h5.18v14c0 2.85 1.28 4.27 3.83 4.27 2.56 0 4.95-2.22 5.3-3.02V84.35h5.17v22.2h-5.18zM308.25 106.56v-1.87c-.74.6-2.66 2.25-6.57 2.25-5.16 0-7.73-2.73-7.73-8.2v-14.4h5.18v14c0 2.85 1.28 4.27 3.83 4.27 2.56 0 4.95-2.22 5.3-3.02V84.35h5.16v22.2h-5.18zM140.56 88.5H138v-4.15h2.56v-4.52l5.18-1.9v6.42h6.1v4.16h-6.1v9.73c0 2.4.76 4.35 3.35 4.35 1.24 0 2.4-.34 3.48-1.02v4.77c-1.2.4-2.92.62-5.15.62-4.55 0-6.87-3.32-6.87-7.2V88.5zM154.16 105.1l1.85-4.12c1.55 1.23 3.3 1.85 5.25 1.85 2.02 0 3.02-.72 3.02-2.16 0-1.85-2.7-3.24-4.45-3.98-3.83-1.6-5.74-3.82-5.74-6.68 0-5.1 5.53-6.1 7.8-6.1 2.32 0 4.5.53 6.52 1.56l-1.5 4.02c-1.13-.96-2.7-1.45-4.72-1.45-1.8 0-2.7.72-2.7 2.16 0 1.87 2.74 2.6 4.7 3.38 1.94.76 5.48 2.5 5.48 6.74 0 2.06-1.2 6.63-8.5 6.63-3.46 0-5.6-1.1-7-1.85M316.8 105.1l1.85-4.12c1.55 1.23 3.3 1.85 5.24 1.85 2 0 3-.72 3-2.16 0-1.85-2.7-3.24-4.44-3.98-3.82-1.6-5.74-3.82-5.74-6.68 0-5.1 5.53-6.1 7.8-6.1 2.32 0 4.5.53 6.52 1.56l-1.5 4.02c-1.13-.96-2.7-1.45-4.7-1.45-1.82 0-2.73.72-2.73 2.16 0 1.87 2.77 2.6 4.7 3.38 1.96.76 5.5 2.5 5.5 6.74 0 2.06-1.2 6.63-8.5 6.63-3.46 0-5.6-1.1-7-1.85M176.9 93.13h10.9c-.38-3.25-2.17-4.87-5.4-4.87-2.96 0-4.8 1.62-5.5 4.87m15.65 3.9H176.7c.1 1.76 1.14 5.6 6.34 5.6 2.36 0 4.15-.63 5.4-1.86l2 3.96c-1.82 1.48-4.55 2.22-8.16 2.22-7.2 0-10.98-4.8-10.98-11.27 0-7.56 5.76-11.75 11.02-11.75 7.12 0 10.67 5.2 10.67 10.2 0 .65-.16 1.6-.45 2.9M210.42 106.53V92.86c0-1.37-.8-4.54-4.64-4.54-2.26 0-4.08 1.7-4.45 2.28v15.93h-5.26V76.08l5.26-1.24v10.9c1.34-1.2 3.18-1.8 5.53-1.8 5.97 0 8.76 3.8 8.76 8.92v13.67h-5.2zM232 96.1c-.87-.2-1.54-.28-1.98-.28-4.1 0-6.13 1.34-6.13 4.02 0 2 1.14 3 3.45 3 3.1 0 4.66-1.57 4.66-4.67V96.1zm.5 8.22c-.46.77-3 2.63-6.1 2.63-5.5 0-7.7-3.38-7.7-6.88 0-5.95 5.38-8.2 11.12-8.2.6 0 1.32.1 2.15.3 0-2.6-1.65-3.9-4.95-3.9-1.95 0-3.58.32-4.9.97l-1.1-4.02c1.77-.86 3.9-1.3 6.35-1.3 6.07 0 9.8 2.1 9.8 11.08v4.74c0 2.96.6 4.8 1.78 5.57-.42.76-1.25 1.65-3.23 1.65-1.67 0-3-1.98-3.2-2.63M254.52 89.17c-.92-.6-1.94-.9-3.04-.9-2.43 0-4.6 2.83-4.6 5.63v12.63h-5.18V84.36h5.17v2.03c1.46-1.63 3.38-2.45 5.78-2.45 1.77 0 3.13.27 4.07.8l-2.2 4.44zM262.83 75.75c1.75 0 3 1.6 3 3 0 1.42-1.35 3-3 3-1.66 0-3-1.5-3-3 0-1.75 1.52-3 3-3m-2.67 30.78V88.6h-2.85v-4.25h8.1v22.18h-5.24zM284.64 89.65c-1.1-.9-2.26-1.33-3.46-1.33-4 0-6.46 2.72-6.46 7.34 0 4.6 2.22 6.92 6.66 6.92 1.4 0 3.04-1.05 3.26-1.35V89.65zm0 16.88v-1.34c-.43.46-2.72 1.75-5.34 1.75-6 0-9.97-4.14-9.97-11.15 0-7 4.76-11.87 10.7-11.87 1.7 0 3.23.35 4.6 1.04v-8.9l5.2-1.23v31.7h-5.2z"/>
  </g>
  <defs>
    <linearGradient id="_Linear1" x2="1" gradientUnits="userSpaceOnUse" gradientTransform="translate(58.885 46.433) scale(16.0908)">
      <stop offset="0%" stop-color="#fff"/>
      <stop offset="100%" stop-color="#005caa"/>
    </linearGradient>
    <linearGradient id="_Linear2" x2="1" gradientUnits="userSpaceOnUse" gradientTransform="rotate(180 21.697 23.217) scale(40.4375)">
      <stop offset="0%" stop-color="#fff"/>
      <stop offset="100%" stop-color="#005caa"/>
    </linearGradient>
  </defs>
</svg>
