<svg xmlns="http://www.w3.org/2000/svg" fill-rule="evenodd" stroke-miterlimit="1.41" viewBox="0 0 342 94" clip-rule="evenodd" stroke-linejoin="round">
  <!-- <path id="Artboard1" fill="none" d="M0 0h342v94H0z"/> -->
  <g id="logotyyp" fill="#aeafb2" fill-rule="nonzero">
    <path d="M142.65 68.8V41.7c0-4-.77-6.9-2.3-8.75-1.53-1.84-4.04-2.76-7.5-2.76-1.6 0-3.33.4-5.15 1.3-1.82.9-3.25 2-4.27 3.33v33.9H112.5V21.9h7.87l2 4.38c3-3.5 7.38-5.26 13.18-5.26 5.58 0 9.98 1.68 13.2 5.02 3.23 3.34 4.84 8 4.84 13.98V68.8h-11zm48.43 0V41.7c0-4-.76-6.9-2.3-8.75-1.53-1.84-4.03-2.76-7.5-2.76-1.6 0-3.32.4-5.14 1.3-1.83.9-3.25 2-4.27 3.33v33.9h-10.95V21.9h7.88l2.02 4.38c2.97-3.5 7.37-5.26 13.17-5.26 5.5 0 9.9 1.68 13.2 5.02 3.2 3.34 4.8 8 4.8 13.98V68.8h-11zm26.6-23.55c0 10.33 3.7 15.5 11.16 15.5 3.4 0 6.12-1.35 8.12-4.03 2-2.7 3-6.5 3-11.47 0-10.2-3.7-15.28-11.12-15.28-3.42 0-6.13 1.34-8.14 4.03-2.02 2.68-3.02 6.43-3.02 11.25m-11.38 0c0-7.15 2.06-12.97 6.2-17.47 4.12-4.5 9.57-6.74 16.34-6.74 7.1 0 12.65 2.16 16.58 6.48 3.94 4.32 5.9 10.23 5.9 17.73 0 7.47-2 13.4-6 17.8-4.02 4.42-9.5 6.62-16.48 6.62-7.12 0-12.66-2.23-16.6-6.67-3.97-4.45-5.94-10.37-5.94-17.75m68.74 24.42h-3.94l-21.18-47.75h12l11.2 28.62 12.03-28.62h11.6l-21.7 47.75zm32.1-29.2h23.03c-.76-6.85-4.55-10.3-11.38-10.3-6.3 0-10.2 3.45-11.7 10.3m33.1 8.24h-33.5c.2 3.8 1.5 6.7 3.82 8.8 2.36 2.1 5.54 3.1 9.54 3.1 5 0 8.8-1.3 11.4-3.9l4.23 8.38c-3.86 3.1-9.6 4.68-17.25 4.68-7.17 0-12.8-2.1-16.98-6.27-4.16-4.2-6.24-10.05-6.24-17.55 0-7.4 2.27-13.36 6.84-17.95 4.57-4.57 10.05-6.86 16.44-6.86 6.8 0 12.26 2.02 16.38 6.1 4.1 4.03 6.14 9.2 6.14 15.47 0 1.35-.3 3.38-.92 6.1m-236-20.4V22h-11v10.7l11.06-4.38zm-11 7.1v33.3h11.06V31.1L93.1 35.46z"/>
  </g>
  <g id="logo" fill-rule="nonzero">
    <path fill="url(#_Linear1)" d="M58.88 23.2l.37 35.52 15.73 34.15V0l-16.1 23.2z"/>
    <path fill="url(#_Linear2)" d="M1 92.87L41.32 57.4l.12-34.2L1 0v92.87z"/>
  </g>
  <defs>
    <linearGradient id="_Linear1" x2="1" gradientUnits="userSpaceOnUse" gradientTransform="translate(58.885 46.433) scale(16.0908)">
      <stop offset="0%" stop-color="#fff"/>
      <stop offset="100%" stop-color="#005caa"/>
    </linearGradient>
    <linearGradient id="_Linear2" x2="1" gradientUnits="userSpaceOnUse" gradientTransform="rotate(180 21.697 23.217) scale(40.4375)">
      <stop offset="0%" stop-color="#fff"/>
      <stop offset="100%" stop-color="#005caa"/>
    </linearGradient>
  </defs>
</svg>
