<svg xmlns="http://www.w3.org/2000/svg" viewBox="0 0 400 360">
  <title>nm-19__logo</title>
  <g id="Layer_2" data-name="Layer 2">
    <g id="template_bg" data-name="template bg">
      <g>
        <rect width="400" height="360" style="fill: #d3065b"/>
        <path d="M161.74,138.13h12v52.68h-12ZM63.37,190.81H51.42V141.4l11.95,19.93Zm47.91,0H99.34V161.33l11.94-19.94Zm196.84-52.6h11.94v52.61H308.12Zm44.18,52.52H339.81s-2-2.25-3.14-8.92c-1-6-.56-10.47-8.69-10.47h-6v-9.52h8.2a7.2,7.2,0,0,0,7-7.4c0-3.88-2.23-7-7.88-7H322v-9.32h8.42c11.22,0,18.71,5.22,18.71,16,0,7.64-2.17,10.23-5.05,13.1,6.51,6.52,3.11,18.38,8.27,23.55ZM80.67,187.18,51.56,138.27H62.93l17.74,29.8v19.11ZM82.47,168l17.74-29.8h11.37l-29.11,48.9V168Zm113.21.06c-11.33-2.7-15.57-6.63-15.57-15.12,0-8.71,6.88-14.63,19.28-14.63l.08,8.77c-7,0-7.82,3.27-7.82,5.86,0,3.26,5.19,4.72,13,6.09,10.86,1.9,16.31,7,16.31,15.55,0,10-6.38,16.34-19.58,16.34v-9.27c5.58,0,8-2.31,8-6.34,0-2.59-2.36-4.55-13.71-7.24Zm3.77,13.28-.08,9.43c-13.71,0-20.74-6.74-20.74-16.68l11-1.07c0,5.7,4.69,8.33,9.79,8.33Zm1.73-43.14c14.5,0,19,10.38,19,15.8l-11,1.06a8.44,8.44,0,0,0-8-8l0-8.88ZM235.8,150h11.95V190.7H235.81V150Zm-13.9-11.64h39.15V148H221.9v-9.68Zm-104.83-.21h12v52.68H117.08V138.13Zm14.12,42.93h24.63v9.67H131.19v-9.68Zm-.05-22.91h22.63v9.67H131.14v-9.67Zm-.07-19.91h24.64v9.68H131.07Zm133.25-.11h11.95v52.68H264.32Zm14.11,42.93h24.63v9.67H278.44v-9.68Zm0-22.91H301v9.67H278.39v-9.67Zm-.07-19.91H303v9.68H278.32v-9.68ZM69.39,129.42h-18V55.08l18,30ZM283.85,50.17h18v79.25h-18ZM98.62,129.37l-47-79h17.1l47,79-17.15-.07Zm62-14.24q7.68-.37,13.13-7.44a28,28,0,0,0,5.79-17.82A28.08,28.08,0,0,0,173.78,72q-5.46-7-13.13-7.4V50.11a35.92,35.92,0,0,1,25.49,11.58,39.24,39.24,0,0,1,11.08,28.07,39,39,0,0,1-11.08,28,35.84,35.84,0,0,1-25.49,11.65V115.14Zm81.12,0q7.66-.37,13.13-7.44a28.07,28.07,0,0,0,5.79-17.82A28.14,28.14,0,0,0,254.9,72q-5.46-7-13.13-7.4V50.11a35.92,35.92,0,0,1,25.49,11.58,39.32,39.32,0,0,1,11.08,28.07,39.05,39.05,0,0,1-11.09,28,35.8,35.8,0,0,1-25.48,11.65V115.14Zm-2.87-50.4q-6.9.83-12,7.28a28.08,28.08,0,0,0-5.79,17.86,28,28,0,0,0,5.79,17.82q5.09,6.51,12,7.34v14.33a35.29,35.29,0,0,1-25.08-11.58,39,39,0,0,1-11.09-28A39.24,39.24,0,0,1,213.81,61.7,35.47,35.47,0,0,1,238.9,50.17Zm-81.11,0q-6.9.83-12,7.28A28.08,28.08,0,0,0,140,89.87a28.07,28.07,0,0,0,5.79,17.82q5.09,6.51,12,7.34v14.33q-14.61-.54-25.09-11.58a39,39,0,0,1-11.09-28A39.25,39.25,0,0,1,132.7,61.7a35.48,35.48,0,0,1,25.08-11.53V64.73ZM350.4,129.31H331.6s-3-3.4-4.73-13.45c-1.52-9-.85-15.78-13.1-15.78h-9.08V85.74H317c5.5,0,10.49-4.74,10.49-11.14,0-5.85-3.38-10.58-11.88-10.58h-11V50h12.68c16.91,0,28.19,7.87,28.19,24.16,0,11.49-3.27,15.4-7.61,19.74,9.82,9.81,4.71,27.69,12.46,35.46Zm-252.5-79h18v74.33l-18-30V50.35ZM48.83,307.81H72.16l0-22.24c0-8,19.2-12.9,35.74-21.68,19-10.07,23.49-16,23.49-32.55,0-18.49-17.84-31.51-39-31.51l-.14,20.62c7.55,0,15.79,2.73,15.79,11.86,0,16.57-59.24,17.17-59.24,51.78Zm40-87.3-.15-20.83c-24.78,0-39.73,16.41-39.73,33.29L70,235C70,227.26,78.39,220.51,88.79,220.51Zm42.78,65.12h-56v22.18h56Zm8.28-52.29v42.18c0,27.88,22.61,33.65,36.2,33.65v-19.9c-5.19,0-14.15-4.36-14.15-15.38V235c0-6.5,6.32-15.38,14.15-15.38v-19.9C143.6,199.68,139.85,224.86,139.85,233.34Zm39.57-33.66v19.9c7.83,0,14.15,8.88,14.15,15.38v38.93c0,11-9,15.38-14.15,15.38v19.9c13.6,0,36.2-5.77,36.2-33.65V233.34C215.62,224.86,211.87,199.68,179.42,199.68Zm44.51,41.81,14.75-13.27V201.38l-14.75,13.35Zm41.92-40.44H241.69V307.59h24.16Zm63.41,32.29a13.69,13.69,0,0,0-12.72-13.81V200.36c28.36,0,36.5,18.25,36.5,30.63v44.4c0,17.59-9.51,34.38-37.8,34.38V290.33c9.12-.26,13.8-8.8,14-14.81V261.63a42.9,42.9,0,0,1-24.41,7c-19.93,0-29.16-8.61-29.16-22.42V230.46c0-17.25,10.55-30.1,37.31-30.1v19c-8.91.09-13.36,7.22-13.36,14.2v5.53c0,5.12,4,13.08,11.9,13.08,13.74,0,16.3-4,17.72-6.23Zm-18.81,76.43c-27.66,0-36.17-17.78-36.17-33.55h23.78c0,7,5.39,14.11,12.39,14.11Z" style="fill: #fff;fill-rule: evenodd"/>
      </g>
    </g>
  </g>
</svg>
