<svg xmlns="http://www.w3.org/2000/svg" viewBox="0 0 420 358.7">
  <title>nm-logo__2019-neg</title>
  <g id="logod">
    <path d="M155.89,121.74h16.5v72.72h-16.5ZM20.07,194.46H3.57V126.25l16.5,27.53Zm66.14,0H69.73V153.78l16.48-27.54ZM358,121.84h16.48v72.62H358Zm61,72.51H401.74S399,191.23,397.4,182c-1.39-8.23-.78-14.46-12-14.46h-8.31V154.43H388.4A9.94,9.94,0,0,0,398,144.22c0-5.37-3.07-9.7-10.88-9.7h-10V121.64H388.7c15.49,0,25.82,7.2,25.82,22.14,0,10.54-3,14.12-7,18.09,9,9,4.3,25.37,11.42,32.5Zm-375-4.9L3.76,121.94h15.7L44,163.08v26.37ZM46.45,163l24.48-41.15H86.62L46.44,189.4V163Zm156.29.07c-15.65-3.72-21.5-9.15-21.5-20.86,0-12,9.51-20.2,26.62-20.2l.11,12.1c-9.65,0-10.79,4.52-10.79,8.1,0,4.5,7.16,6.51,17.92,8.4,15,2.63,22.52,9.59,22.52,21.46,0,13.78-8.81,22.56-27,22.56v-12.8c7.7,0,11.09-3.18,11.09-8.75,0-3.58-3.26-6.28-18.93-10ZM208,181.45l-.11,13c-18.93,0-28.64-9.3-28.64-23L194.44,170c0,7.87,6.47,11.49,13.51,11.49Zm2.38-59.56c20,0,26.27,14.33,26.27,21.81l-15.18,1.47c0-5.52-5.26-11-11-11l0-12.26Zm47.8,16.21h16.49v56.22H258.14V138.1ZM239,122h54v13.38H238.93V122.05Zm-144.74-.29h16.5v72.72H94.22V121.74ZM113.71,181h34v13.35h-34V181Zm-.07-31.64h31.23v13.36H113.64V149.37Zm-.1-27.48h34v13.36h-34Zm184-.15H314v72.72h-16.5ZM317,181h34v13.35H317V181Zm0-31.64h31.22v13.36H316.94V149.37Zm-.1-27.48h34v13.36h-34V121.89ZM28.39,109.71H3.57V7.08L28.39,48.5ZM324.47.3H349.3V109.71H324.47ZM68.74,109.64,3.86.59h23.6L92.4,109.71l-23.67-.09ZM154.38,90q10.59-.52,18.13-10.28,8-10.2,8-24.59t-8-24.67Q165,20.79,154.38,20.24V.22q20.48.69,35.19,16,15.3,16.07,15.3,38.75t-15.3,38.67q-14.7,15.38-35.19,16.08V90Zm112,0q10.58-.52,18.13-10.28,8-10.2,8-24.59t-8-24.67c-5-6.44-11.08-9.85-18.13-10.21V.22q20.5.69,35.19,16Q316.85,32.28,316.86,55T301.55,93.63q-14.7,15.38-35.18,16.08V90Zm-4-69.59q-9.53,1.16-16.51,10.05-8,10.19-8,24.67t8,24.59q7,9,16.51,10.13v19.79q-20.16-.75-34.63-16-15.33-16-15.31-38.67t15.3-38.75Q242.23,1.07,262.41.3Zm-112,0q-9.52,1.16-16.52,10.05-8,10.19-8,24.67t8,24.59q7,9,16.52,10.13v19.79q-20.18-.75-34.64-16-15.32-16-15.31-38.67t15.31-38.75Q130.25,1.07,150.42.3V20.4Zm265.93,89.16h-26s-4.17-4.7-6.53-18.57c-2.1-12.4-1.17-21.78-18.1-21.78H353.25V49.41h17c7.59,0,14.48-6.54,14.48-15.38,0-8.08-4.66-14.61-16.41-14.61H353.23V0h17.51c23.35,0,38.91,10.86,38.91,33.35,0,15.86-4.51,21.26-10.5,27.25,13.55,13.54,6.49,38.24,17.21,49ZM67.75.53H92.56V103.16L67.75,61.74V.53ZM0,356H32.2l0-30.7c0-11,26.52-17.82,49.35-29.93,26.21-13.91,32.43-22.17,32.43-45,0-25.52-24.63-43.5-53.83-43.5L60,235.39c10.43,0,21.81,3.77,21.81,16.38C81.79,274.64,0,275.47,0,323.25ZM55.17,235.48,55,206.71c-34.21,0-54.86,22.67-54.86,46l29.18,2.77C29.28,244.8,40.81,235.48,55.17,235.48Zm59.06,89.9H37V356h77.28Zm11.44-72.19v58.23c0,38.5,31.2,46.47,50,46.47V330.41c-7.16,0-19.54-6-19.54-21.23V255.43c0-9,8.73-21.24,19.54-21.24V206.72C130.84,206.72,125.67,241.48,125.67,253.19Zm54.63-46.47v27.47c10.8,0,19.53,12.26,19.53,21.24v53.75c0,15.2-12.37,21.23-19.53,21.23v27.48c18.76,0,50-8,50-46.47V253.19C230.27,241.48,225.09,206.72,180.3,206.72Zm61.44,57.73,20.37-18.33V209.07L241.74,227.5Zm57.88-55.84H266.26V355.7h33.36Zm87.54,44.57c0-8.42-5.86-18.08-17.56-19.06V207.65c39.16,0,50.4,25.19,50.4,42.3v61.29c0,24.29-13.13,47.46-52.2,47.46V331.87c12.6-.37,19.06-12.14,19.36-20.45V292.24A59.11,59.11,0,0,1,353.47,302C326,302,313.2,290.06,313.2,271V249.22c0-23.82,14.58-41.57,51.52-41.57v26.29c-12.31.12-18.46,10-18.46,19.61v7.63c0,7.08,5.48,18.06,16.44,18.06,19,0,22.5-5.55,24.46-8.6Zm-26,105.52c-38.19,0-49.95-24.53-49.95-46.32h32.84c0,9.67,7.44,19.49,17.11,19.49Z" style="fill: #fff;fill-rule: evenodd"/>
  </g>
</svg>
