<?xml version="1.0" encoding="utf-8"?>
<!DOCTYPE svg PUBLIC "-//W3C//DTD SVG 1.1//EN" "http://www.w3.org/Graphics/SVG/1.1/DTD/svg11.dtd">
<svg version="1.1" id="NM-logo" xmlns="http://www.w3.org/2000/svg" xmlns:xlink="http://www.w3.org/1999/xlink" x="0px" y="0px"
	 viewBox="0 0 800 240">
<g fill="#8BBA40">
	<polygon  points="516.64,32.77 549.29,3.24 549.29,62.64 516.64,92.01 "/>
	<rect x="555.95" y="2.5" width="53.49" height="237.5"/>
	<polygon points="797.83,54.71 690.62,238.8 631.77,238.8 738.98,54.71 "/>
	<rect x="632.59" y="3.24" width="165.41" height="43.27"/>
</g>
<g fill="#ffffff">
	<polygon points="22.7,239.65 2,239.65 2,154.04 22.7,188.59"/>
	<polygon points="52.68,233.36 2.25,148.65 21.94,148.65 52.68,200.27"/>
	<polygon points="55.8,200.21 86.54,148.58 106.22,148.58 55.8,233.3"/>
	<polygon points="85.01,188.59 105.71,154.05 105.71,239.64 85.01,239.64"/>
	<rect x="116.71" y="148.39"  width="20.7" height="91.25"/>
	<rect x="140.97" y="148.58"  width="42.67" height="16.77"/>
	<rect x="141.1" y="183.06" 	 width="39.18" height="16.76"/>
	<rect x="141.16" y="222.75"  width="42.67" height="16.77"/>
	<rect x="194.42" y="148.39"  width="20.7" height="91.25"/>
	<path d="M259.86,223.33l-0.12,16.32c-23.77,0-35.94-11.66-35.94-28.89l19.12-1.84
		C242.9,218.79,251.02,223.33,259.86,223.33z"/>
	<path d="M253.32,200.32c-19.66-4.67-26.99-11.5-26.99-26.2c0-15.11,11.93-25.34,33.4-25.34l0.13,15.17
		c-12.11,0-13.53,5.67-13.53,10.16c0,5.66,8.99,8.18,22.48,10.54c18.81,3.3,28.26,12.03,28.26,26.92
		c0,17.3-11.04,28.32-33.91,28.32v-16.07c9.67,0,13.91-4.01,13.91-10.98C277.07,208.36,272.97,204.99,253.32,200.32z"/>
	<path d="M262.84,148.58c25.11,0,32.96,17.98,32.96,27.37l-19.05,1.84c0-6.93-6.6-13.84-13.85-13.84L262.84,148.58z"/>
	<rect x="299.82" y="148.77" width="67.82" height="16.77"/>
	<rect x="323.89" y="168.9"  width="20.7" height="70.56"/>
	<rect x="373.6" y="148.39"  width="20.7" height="91.25"/>
	<rect x="397.85" y="148.58" width="42.68" height="16.77"/>
	<rect x="397.99" y="183.06" width="39.18" height="16.76"/>
	<rect x="398.05" y="222.75" width="42.68" height="16.77"/>
	<rect x="449.88" y="148.52" width="20.67" height="91.12"/>
	<path d="M512.09,198.74c11.28,11.28,5.4,31.84,14.33,40.78h-21.62c0,0-3.48-3.92-5.43-15.47
		c-1.75-10.33-0.98-18.14-15.07-18.14h-10.43v-16.49h14.2c6.31,0,12.04-5.45,12.04-12.81c0-6.73-3.87-12.18-13.66-12.18h-12.59
		v-16.17h14.58c19.44,0,32.41,9.04,32.41,27.77C520.84,189.26,517.07,193.76,512.09,198.74"/>
	</g>

<g fill="#ffffff">
	<polygon points="32.33,136.07 2,136.07 2,10.65 32.33,61.27 "/>
<polygon points="81.65,135.98 2.37,2.74 31.22,2.74 110.58,136.07 "/>
<polygon points="80.43,2.65 110.77,2.65 110.77,128.07 80.43,77.46 "/>
<path d="M181.48,26.93c-7.75,0.93-14.48,5.03-20.19,12.28c-6.51,8.31-9.77,18.36-9.77,30.15
	c0,11.72,3.26,21.74,9.77,30.05c5.71,7.32,12.44,11.45,20.19,12.38v24.19c-16.43-0.62-30.55-7.13-42.33-19.54
	c-12.47-13.02-18.71-28.78-18.71-47.26c0-18.48,6.23-34.27,18.71-47.36c11.78-12.35,25.9-18.83,42.33-19.45V26.93z"/>
<path d="M186.32,111.97c8.62-0.43,16-4.62,22.15-12.56c6.51-8.31,9.77-18.33,9.77-30.05
	c0-11.78-3.26-21.83-9.77-30.15c-6.14-7.88-13.53-12.03-22.15-12.47V2.28C203,2.84,217.33,9.35,229.3,21.82
	C241.77,34.91,248,50.69,248,69.18c0,18.48-6.23,34.24-18.7,47.26c-11.97,12.53-26.3,19.08-42.98,19.63V111.97z"/>
<path d="M318.34,26.93c-7.75,0.93-14.48,5.03-20.19,12.28c-6.51,8.31-9.77,18.36-9.77,30.15
	c0,11.72,3.26,21.74,9.77,30.05c5.71,7.32,12.44,11.45,20.19,12.38v24.19c-16.43-0.62-30.55-7.13-42.33-19.54
	c-12.47-13.02-18.7-28.78-18.7-47.26c0-18.48,6.23-34.27,18.7-47.36c11.78-12.35,25.89-18.83,42.33-19.45V26.93z"/>
<path d="M323.18,111.97c8.62-0.43,16-4.62,22.14-12.56c6.52-8.31,9.77-18.33,9.77-30.05
	c0-11.78-3.26-21.83-9.77-30.15c-6.14-7.88-13.52-12.03-22.14-12.47V2.28c16.69,0.56,31.01,7.07,42.98,19.54
	c12.47,13.09,18.71,28.87,18.71,47.36c0,18.48-6.23,34.24-18.71,47.26c-11.97,12.53-26.3,19.08-42.98,19.63V111.97z"/>
<rect x="394.17" y="2.37" width="30.33" height="133.7"/>
<path d="M485.45,76.06c16.55,16.55,7.92,46.73,21.03,59.83h-31.73c0,0-5.1-5.75-7.98-22.69
	c-2.57-15.16-1.43-26.62-22.11-26.62h-15.31V62.38h20.84c9.26,0,17.67-7.99,17.67-18.79c0-9.88-5.68-17.86-20.04-17.86h-18.47V2
	h21.39c28.53,0,47.55,13.26,47.55,40.75C498.29,62.14,492.76,68.75,485.45,76.06"/>
</g>
</svg>
