<svg xmlns="http://www.w3.org/2000/svg" fill-rule="evenodd" stroke-miterlimit="1.41" viewBox="0 0 1036 368" clip-rule="evenodd" stroke-linejoin="round">
  <g id="__x32_017">
    <g fill="#8ebe3e">
      <path fill-rule="nonzero" d="M629.68 50.52L677 12.2l-4.47 82.04-47.3 38.12 4.45-81.84z"/>
      <path d="M760.16 15.7l-73.88-4.02-17.76 325.72 73.88 4.03L760.16 15.7z"/>
      <path fill-rule="nonzero" d="M1016.42 102.02l-161.95 246.2-81.3-4.44 161.96-246.2 81.3 4.44z"/>
      <path d="M1020.57 30.94L792.1 18.48l-3.26 59.77L1017.3 90.7l3.27-59.76z"/>
    </g>
  </g>
  <g id="meister" fill="#fff">
    <path fill-rule="nonzero" d="M30.82 315.7H6.8v-99.34l24.02 40.1v59.25zm34.78-7.3L7.08 210.1h22.85L65.6 270v38.4zm3.62-38.46l35.68-59.92h22.84l-58.52 98.32v-38.4zm33.9-13.5l24.03-40.1v99.36h-24.02v-59.25z"/>
    <path d="M139.92 209.8h24.03v105.9h-24.03zm28.15.22h49.53v19.46h-49.53zm.15 40.02h45.48v19.46h-45.48zm.08 46.06h49.53v19.46H168.3zm61.8-86.3h24.03v105.9H230.1z"/>
    <path fill-rule="nonzero" d="M306.05 296.77l-.15 18.94c-27.6 0-41.72-13.5-41.72-33.5l22.2-2.1c0 11.5 9.42 16.8 19.67 16.8z"/>
    <path fill-rule="nonzero" d="M298.47 270.06c-22.8-5.42-31.32-13.34-31.32-30.4 0-17.55 13.85-29.42 38.77-29.42l.15 17.6c-14.05 0-15.7 6.6-15.7 11.8 0 6.57 10.43 9.5 26.1 12.25 21.82 3.8 32.78 13.9 32.78 31.2 0 20-12.82 32.8-39.36 32.8v-18.6c11.2 0 16.1-4.68 16.1-12.78 0-5.2-4.8-9.1-27.6-14.53z"/>
    <path fill-rule="nonzero" d="M309.52 210.02c29.15 0 38.25 20.87 38.25 31.77l-22.1 2.1c0-8.1-7.67-16.1-16.08-16.1l-.1-17.9z"/>
    <path d="M352.44 210.24h78.7v19.46h-78.7zm27.93 23.36h24.02v81.9h-24.1zm57.7-23.8h24.03v105.9h-24.03zm28.15.22h49.53v19.46h-49.53zm.15 40.02h45.47v19.46h-45.47zm.07 46.06h49.53v19.46h-49.53zm60.16-86.15h24V315.7h-24z"/>
    <path fill-rule="nonzero" d="M598.8 268.23c13.08 13.1 6.26 36.96 16.62 47.32h-25.1s-4.04-4.55-6.3-17.95c-2.04-12-1.15-21.06-17.5-21.06h-12.1V257.4h16.47c7.3 0 13.9-6.3 13.9-14.86 0-7.8-4.5-14.13-15.9-14.13h-14.6v-18.7h16.9c22.55 0 37.6 10.5 37.6 32.3 0 15.38-4.37 20.6-10.16 26.38"/>
  </g>
  <g id="noor" fill="#fff">
    <path fill-rule="nonzero" d="M42 195.5H6.8V49.93L42 108.68v86.82zm57.22-.1l-92-154.65H40.7l92.1 154.75-33.58-.1zm-1.4-154.75h35.2V186.2l-35.2-58.73V40.65zM215.1 68.83c-9 1.08-16.82 5.83-23.44 14.25-7.56 9.65-11.34 21.3-11.34 35 0 13.6 3.78 25.22 11.34 34.87 6.62 8.5 14.44 13.3 23.43 14.36v28.1c-19.1-.7-35.5-8.3-49.2-22.7-14.5-15.1-21.7-33.4-21.7-54.8s7.2-39.7 21.7-54.9c13.7-14.3 30-21.82 49.1-22.6v28.5zm5.6 98.7c10-.5 18.58-5.36 25.7-14.58 7.57-9.65 11.35-21.27 11.35-34.88 0-13.68-3.78-25.34-11.34-35-7.1-9.13-15.7-13.96-25.7-14.46V40.2c19.4.66 36 8.2 49.9 22.7 14.5 15.18 21.7 33.5 21.7 54.95 0 21.45-7.2 39.74-21.7 54.85-13.9 14.54-30.5 22.14-49.9 22.8v-27.97zm153.23-98.7c-9 1.08-16.8 5.83-23.43 14.25-7.56 9.65-11.34 21.3-11.34 35 0 13.6 3.78 25.22 11.34 34.87 6.63 8.5 14.44 13.3 23.43 14.36v28.1c-19.07-.7-35.46-8.3-49.13-22.7-14.48-15.1-21.7-33.4-21.7-54.8s7.22-39.7 21.7-54.9c13.67-14.3 30.05-21.8 49.13-22.52v28.5zm5.62 98.7c10-.5 18.57-5.36 25.7-14.58 7.56-9.65 11.34-21.27 11.34-34.88 0-13.68-3.8-25.34-11.4-35-7.1-9.13-15.7-13.96-25.7-14.46V40.2c19.3.66 36 8.2 49.9 22.7 14.4 15.18 21.7 33.5 21.7 54.95 0 21.45-7.3 39.74-21.7 54.85-13.9 14.54-30.6 22.14-49.9 22.8v-27.97z"/>
    <path d="M461.95 40.32h35.2V195.5h-35.2z"/>
    <path fill-rule="nonzero" d="M567.88 125.85c19.2 19.2 9.2 54.23 24.4 69.44h-36.82s-5.92-6.7-9.26-26.4c-2.98-17.6-1.67-30.9-25.67-30.9h-17.77v-28.1h24.18c10.75 0 20.5-9.3 20.5-21.8 0-11.5-6.58-20.8-23.25-20.8h-21.5V39.9h24.8c33.1 0 55.2 15.38 55.2 47.3 0 22.5-6.4 30.16-14.9 38.65"/>
  </g>
</svg>
