<?xml version="1.0" encoding="UTF-8" standalone="no"?>
<!DOCTYPE svg PUBLIC "-//W3C//DTD SVG 1.1//EN" "http://www.w3.org/Graphics/SVG/1.1/DTD/svg11.dtd">
<svg width="100%" height="100%" viewBox="0 0 477 367" version="1.1" xmlns="http://www.w3.org/2000/svg" xmlns:xlink="http://www.w3.org/1999/xlink" xml:space="preserve" xmlns:serif="http://www.serif.com/" style="fill-rule:evenodd;clip-rule:evenodd;stroke-linejoin:round;stroke-miterlimit:1.41421;">
    <g id="V1-neg" serif:id="V1 neg">
        <path d="M207.273,259.345l0,-6.177l-39.066,3.418c-3.879,8.78 -4.031,19.134 -4.031,19.134l0,50.219c0,0 0.222,17.152 8.357,26.024c8.431,9.197 19.379,13.52 34.74,14.052l0,-23.701c-6.943,-1.061 -16.096,-10.243 -16.849,-18.306c-0.381,-4.05 -0.381,-42.305 0,-46.355c0.753,-8.063 9.906,-17.25 16.849,-18.308Zm4.015,-6.529l0,6.528c6.943,1.06 16.094,10.245 16.85,18.308c0.379,4.05 0.379,42.305 0,46.355c-0.756,8.063 -9.907,17.247 -16.85,18.306l0,23.701c15.359,-0.532 26.308,-4.855 34.741,-14.05c8.132,-8.872 8.354,-26.024 8.354,-26.024l0,-50.219c0,0 -0.224,-17.061 -8.293,-25.95l-34.802,3.045Zm157.783,3.902l0,-17.707l-25.346,2.219c-12.954,6.165 -20.76,16.855 -20.76,29.25c0,14.622 8.66,21.236 19.28,27.588c-11.416,3.745 -24.558,13.144 -24.558,30.9c0,18.799 18.267,36.912 51.384,36.912l0,-20.914c-9.418,0.014 -21.514,-6.6 -21.514,-18.088c0,-10.773 12.348,-17.756 21.514,-17.561l0,-23.519c-7.972,0.348 -16.379,-6 -16.379,-14.979c0,-8.66 8.646,-13.36 16.379,-14.101Zm30.984,41.35c10.62,-6.351 19.282,-12.966 19.282,-27.588c0,-15.591 -12.304,-28.53 -31.747,-33.088l-14.361,1.255l0,18.071c7.734,0.739 16.381,5.441 16.381,14.099c0,8.981 -8.408,15.329 -16.381,14.982l0,23.519c9.167,-0.195 21.513,6.787 21.513,17.56c0,11.489 -12.094,18.103 -21.513,18.086l0,20.914c33.391,0 51.386,-18.111 51.386,-36.91c0,-17.756 -13.144,-27.154 -24.56,-30.9Zm-312.383,39.908l66.641,0l0,26.413l-66.641,0l0,-26.413Zm31.13,-23.094c10.707,-4.978 35.333,-14.025 35.333,-40.701c0,-6.145 -1.594,-10.734 -4.393,-15.981l-35.691,3.123c2.34,0.512 12.282,2.729 12.282,13.172c0,10.442 -24.611,19.312 -35.419,25.061c-8.441,4.489 -35.109,15.99 -35.109,36.587l0,28.245l27.77,0l0.036,-26.481c0.122,-9.113 15.378,-13.814 35.191,-23.025Zm193.979,49.241l-28.776,0l0,-117.669l28.776,-2.518l0,120.187Zm-43.869,-116.349l-6.401,5.791l0,31.865l17.565,-15.799l0,-22.833l-11.164,0.976Zm-181.401,18.074c1.204,-1.046 2.593,-1.873 4.016,-2.555l-33.878,2.964c-0.824,2.841 -1.44,5.861 -1.756,9.028l25.158,2.384c-0.085,-2.502 1.98,-7.935 6.46,-11.821Z" style="fill:rgb(35,31,32);"/>
        <path d="M7.623,268.509l-6.623,-75.706l468.377,-40.975l6.623,75.705l-468.377,40.976Zm79.598,-38.902c0.392,4.472 -2.312,9.304 -10.635,10.032c-8.327,0.731 -11.825,-3.561 -12.217,-8.033l-1.077,-12.312c-0.39,-4.471 2.31,-9.305 10.637,-10.034c8.323,-0.728 11.825,3.562 12.214,8.036l1.078,12.311Zm13.124,7.954c-3.409,0.298 -7.062,-0.14 -9.689,-1.072l0.656,-5.233c2.778,0.605 5.571,0.942 8.63,0.673c3.409,-0.299 4.015,-1.021 3.799,-3.5c-0.233,-2.657 -0.392,-2.956 -5.313,-3.597c-7.268,-0.925 -8.454,-2.251 -9.013,-8.626c-0.514,-5.89 1.364,-8.42 9.471,-9.128c2.564,-0.224 5.689,-0.23 9.026,0.191l-0.176,5.636c-3.415,-0.279 -5.607,-0.356 -8.266,-0.123c-2.964,0.259 -3.582,0.849 -3.394,3.02c0.25,2.835 0.385,2.866 5.13,3.567c8.141,1.207 8.675,2.721 9.181,8.522c0.512,5.846 -1.144,8.891 -10.042,9.67Zm-68.165,-17.643l7.493,3.496l0.72,8.236l-6.771,4.743l-7.495,-3.494l-0.72,-8.238l6.773,-4.743Zm79.629,-13.525l6.64,-0.58l2.581,29.491l-6.64,0.582l-2.581,-29.493Zm8.745,13.781l6.709,-15.132l7.483,-0.657l-7.017,15.162l10.22,14.279l-7.484,0.654l-9.911,-14.306Zm-41.004,-1.722c-0.201,-2.304 -1.787,-3.591 -5.107,-3.301c-3.32,0.29 -4.658,1.835 -4.459,4.139l0.979,11.16c0.201,2.302 1.786,3.591 5.106,3.301c3.322,-0.292 4.66,-1.838 4.459,-4.139l-0.978,-11.16Zm80.49,-16.279l1.827,20.904c0.391,4.471 -2.001,9.276 -10.328,10.006c-8.325,0.726 -11.512,-3.591 -11.904,-8.063l-1.827,-20.903l6.642,-0.581l1.774,20.284c0.208,2.39 1.48,3.663 4.8,3.373c3.324,-0.29 4.355,-1.766 4.146,-4.156l-1.774,-20.284l6.644,-0.58Zm15.2,28.833c-3.409,0.298 -7.061,-0.14 -9.688,-1.072l0.656,-5.234c2.778,0.606 5.571,0.943 8.63,0.674c3.409,-0.299 4.014,-1.021 3.798,-3.5c-0.233,-2.657 -0.391,-2.956 -5.312,-3.597c-7.268,-0.926 -8.454,-2.251 -9.013,-8.626c-0.515,-5.89 1.363,-8.421 9.47,-9.128c2.565,-0.224 5.69,-0.23 9.026,0.191l-0.175,5.636c-3.415,-0.279 -5.607,-0.356 -8.266,-0.123c-2.964,0.259 -3.583,0.849 -3.394,3.019c0.25,2.835 0.385,2.867 5.13,3.568c8.141,1.207 8.674,2.721 9.181,8.522c0.512,5.846 -1.144,8.891 -10.043,9.67Zm25.003,-26.416l2.066,23.603l-6.646,0.583l-2.066,-23.606l-7.925,0.695l-0.515,-5.891l22.496,-1.967l0.515,5.889l-7.925,0.694Zm12.658,22.678l-2.581,-29.496l18.556,-1.621l0.514,5.888l-11.911,1.043l0.472,5.402l10.982,-0.959l0.517,5.89l-10.983,0.959l0.561,6.422l11.912,-1.042l0.517,5.89l-18.556,1.624Zm30.74,-2.69l-2.581,-29.494l18.732,-1.638l0.514,5.89l-12.092,1.057l0.551,6.288l11.16,-0.976l0.517,5.89l-11.163,0.976l1.002,11.427l-6.64,0.58Zm21.754,-1.95l-2.581,-29.496l18.556,-1.622l0.514,5.889l-11.911,1.043l0.472,5.402l10.982,-0.96l0.517,5.891l-10.983,0.959l0.561,6.422l11.912,-1.042l0.517,5.89l-18.556,1.624Zm31.324,-2.222c-3.409,0.298 -7.061,-0.14 -9.688,-1.071l0.656,-5.234c2.778,0.605 5.57,0.942 8.63,0.673c3.409,-0.299 4.014,-1.021 3.798,-3.5c-0.233,-2.657 -0.391,-2.956 -5.312,-3.597c-7.268,-0.925 -8.454,-2.251 -9.013,-8.626c-0.515,-5.89 1.363,-8.42 9.47,-9.127c2.564,-0.225 5.69,-0.231 9.026,0.19l-0.175,5.636c-3.416,-0.279 -5.607,-0.355 -8.266,-0.123c-2.964,0.259 -3.583,0.849 -3.394,3.02c0.25,2.835 0.385,2.866 5.13,3.567c8.141,1.207 8.674,2.721 9.18,8.522c0.513,5.846 -1.143,8.891 -10.042,9.67Zm24.939,-26.477l2.066,23.603l-6.646,0.582l-2.066,-23.605l-7.925,0.694l-0.515,-5.89l22.496,-1.967l0.515,5.888l-7.925,0.695Zm16.834,-7.371l2.581,29.496l-6.642,0.581l-2.581,-29.496l6.642,-0.581Zm22.848,27.722l-9.479,0.83l-10.904,-28.765l6.819,-0.597l8.3,22.923l4.188,-24.018l6.822,-0.595l-5.746,30.222Zm32.463,-2.84l-6.909,0.603l-2.098,-5.617l-9.877,0.864l-1.091,5.897l-6.908,0.605l6.411,-30.281l8.856,-0.775l11.616,28.704Zm2.643,-0.231l-2.58,-29.494l6.641,-0.582l2.065,23.605l11.689,-1.025l0.517,5.891l-18.332,1.605Zm-20.507,-9.585l6.778,-0.593l-4.446,-12.062l-2.332,12.655Zm66.814,-17.626l7.493,3.496l0.722,8.236l-6.773,4.743l-7.493,-3.494l-0.722,-8.238l6.773,-4.743Z" style="fill:white;"/>
        <path d="M230.118,142.195c4.132,0.872 15.926,2.839 15.926,8.244c0.118,6.981 -5.761,7.504 -9.502,7.504l0,10.98c9.969,0 23.169,-3.307 23.169,-18.953c0,-14.074 -10.666,-17.402 -23.776,-19.706c-7.265,-1.33 -10.892,-3.426 -10.892,-6.291c-0.142,-7.387 9.008,-6.944 9.242,-6.944l-0.087,-10.366c-9.733,0 -22.824,3.431 -22.824,17.685c0,12.571 9.444,15.883 18.744,17.847Zm-20.479,6.812c0,7.168 2.911,19.739 24.558,19.739l0.087,-11.147c-2.936,0 -11.584,-1.713 -11.584,-9.85l-13.061,1.258Zm-80.671,19.741l-14.144,0l0,-34.882l14.144,-23.603l0,58.485Zm-56.715,0l-14.143,0l0,-58.485l14.143,23.603l0,34.882Zm78.372,-0.001l-14.144,0l0,-62.345l14.144,0l0,62.345Zm53.092,0l-14.143,0l0,-62.345l14.143,0l0,62.345Zm-50.53,-11.541l29.157,0l0,11.456l-29.157,0l0,-11.456Zm138.986,-36.79l0,44.791l-14.141,1.236l0,-46.027l14.141,0Zm-220.441,-13.842l20.999,35.274l0,22.604l-34.45,-57.878l13.451,0Zm57.583,-0.043l-34.45,57.878l0,-22.604l20.999,-35.274l13.451,0Zm196.829,-0.13l0,55.832l-14.143,1.237l0,-57.069l14.143,0Zm31.717,50.805l0,2.253l-29.157,2.551l0,-4.804l29.157,0Zm20.411,-50.805l0,51.272l-14.141,1.237l0,-52.509l14.141,0Zm12.237,-0.172c8.359,0 22.17,2.254 22.17,19.414c0,10.064 -5.321,14.543 -5.988,15.121c2.7,1.928 3.694,5.953 4.296,10.455c0.159,1.188 0.684,3.531 0.684,3.531l-14.038,1.228c-0.235,-1.448 -0.526,-3.317 -0.79,-4.975c0,0 -0.794,-3.498 -3.559,-4.423c-1.743,-0.584 -5.987,-0.913 -12.754,-0.913l0,-11.28l9.744,0c4.502,-0.001 8.217,-3.047 8.217,-9.273c0,-4.66 -3.535,-7.822 -7.982,-7.822l-9.979,0l0,-11.063l9.979,0Zm-35.08,35.315l-26.771,0l0,-11.454l26.771,0l0,11.454Zm-175.516,0l-26.775,0l0,-11.454l26.775,0l0,11.454Zm56.454,-24.515c1.443,0 9.46,2.243 9.46,9.458l13.017,-1.255c0,-7.288 -5.874,-18.702 -22.521,-18.702l0.044,10.499Zm71.556,1.088l-46.336,0l0,-11.455l46.336,0l0,11.455Zm49.805,-0.134l-29.157,0l0,-11.454l29.157,0l0,11.454Zm-175.518,0l-29.157,0l0,-11.454l29.157,0l0,11.454Zm-102.693,-22.347l-21.408,0l0,-88.527l21.408,35.725l0,52.802Zm108.69,-17.01c6.083,-0.307 11.294,-3.263 15.63,-8.865c4.596,-5.867 6.896,-12.939 6.896,-21.213c0,-8.319 -2.3,-15.41 -6.896,-21.279c-4.336,-5.56 -9.547,-8.492 -15.63,-8.801l0,-17.271c11.776,0.394 21.889,4.991 30.341,13.792c8.801,9.238 13.199,20.379 13.199,33.425c0,13.051 -4.398,24.169 -13.199,33.362c-8.452,8.846 -18.565,13.466 -30.341,13.86l0,-17.01Zm96.432,0c6.083,-0.307 11.294,-3.263 15.63,-8.865c4.596,-5.867 6.896,-12.939 6.896,-21.213c0,-8.319 -2.3,-15.41 -6.896,-21.279c-4.336,-5.56 -9.547,-8.492 -15.63,-8.801l0,-17.271c11.776,0.394 21.888,4.991 30.341,13.792c8.801,9.238 13.199,20.379 13.199,33.425c0,13.051 -4.398,24.169 -13.199,33.362c-8.453,8.846 -18.565,13.466 -30.341,13.86l0,-17.01Zm-170.315,16.944l-55.953,-94.045l20.357,0l56.019,94.111l-20.423,-0.066Zm242.009,0.065l-21.408,0l0,-94.373l21.408,0l0,94.373Zm-171.542,-77.035c-5.473,0.656 -10.222,3.546 -14.249,8.668c-4.597,5.869 -6.896,12.96 -6.896,21.281c0,8.274 2.299,15.346 6.896,21.211c4.027,5.168 8.776,8.079 14.249,8.735l0,17.074c-11.6,-0.438 -21.564,-5.033 -29.879,-13.792c-8.803,-9.193 -13.203,-20.313 -13.203,-33.362c0,-13.044 4.4,-24.19 13.203,-33.427c8.315,-8.711 18.279,-13.286 29.879,-13.724l0,17.336Zm96.432,0c-5.473,0.656 -10.222,3.546 -14.249,8.668c-4.597,5.869 -6.896,12.96 -6.896,21.281c0,8.274 2.299,15.346 6.896,21.211c4.027,5.168 8.776,8.079 14.249,8.735l0,17.074c-11.6,-0.438 -21.564,-5.033 -29.879,-13.792c-8.803,-9.193 -13.203,-20.313 -13.203,-33.362c0,-13.044 4.4,-24.19 13.203,-33.427c8.315,-8.711 18.279,-13.286 29.879,-13.724l0,17.336Zm118.122,34.675c-0.175,0.003 4.733,4.493 5.623,10.176c1.415,9.027 3.344,17.718 4.265,22.613c0.67,3.555 4.763,9.302 4.956,9.309l-22.392,0.131c-0.749,0 -2.573,-2.052 -4.008,-8.011c-0.74,-3.075 -2.429,-14.302 -3.349,-18.717c-0.585,-2.805 -2.664,-5.808 -5.387,-6.699c-4.115,-1.347 -9.062,-1.38 -19.305,-1.38l0,-17.076c0,0 11.27,0 15.531,0c5.869,0 11.764,-5.583 11.764,-13.739c0,-7.68 -6.535,-12.134 -12.193,-12.134l-15.102,0l0,-16.748l15.102,0c12.653,0 33.406,4.258 33.559,29.389c0.089,14.437 -8.106,22.87 -9.064,22.886Zm-285.875,-51.815l21.41,0l0,88.528l-21.41,-35.727l0,-52.801Z" style="fill:white;"/>
    </g>
</svg>
