<svg viewBox="0 0 603 277" xmlns="http://www.w3.org/2000/svg" fill-rule="evenodd" clip-rule="evenodd" stroke-linejoin="round" stroke-miterlimit="1.41">
  <path d="M209.83 147.74C195.4 144.31 190 139.3 190 128.5c0-11.1 8.77-18.63 24.55-18.63l.1 11.16c-8.9 0-9.95 4.17-9.95 7.47 0 4.15 6.6 6 16.52 7.75 13.83 2.42 20.77 8.84 20.77 19.79 0 12.7-8.12 20.8-24.93 20.8v-11.8c7.1 0 10.22-2.94 10.22-8.07 0-3.3-3-5.79-17.45-9.22zm-100.4-38.15h15.22v67.06h-15.21v-67.06zm188.8 0h15.21v67.06h-15.21v-67.06zm-131.69 0h15.22v67.06h-15.22v-67.06zM40.36 176.65H25.14v-62.9l15.22 25.38v37.52zm174.27-12l-.1 12c-17.46 0-26.41-8.58-26.41-21.23l14.05-1.36c0 7.26 5.97 10.6 12.46 10.6zm139.65-54.97h15.2v66.97h-15.2v-66.97zm-252.93 66.96h-15.2v-37.51l15.2-25.39v62.9zm26.06-12.4h31.36v12.31h-31.36v-12.32zm188.78 0h31.36v12.31H316.2v-12.32zm94.33 12.3h-15.89s-2.56-2.87-4-11.36c-1.28-7.59-.72-13.33-11.07-13.33h-7.67v-12.12h10.44c4.64 0 8.85-4 8.85-9.41 0-4.95-2.84-8.95-10.04-8.95h-9.25V109.5h10.72c14.28 0 23.81 6.64 23.81 20.41 0 9.72-2.76 13.02-6.43 16.68 8.3 8.3 3.97 23.4 10.53 29.97zM261.7 124.67h15.21v51.85h-15.2v-51.85zM62.38 172.03l-37.06-62.26H39.8l22.59 37.94v24.32zm2.3-24.36l22.58-37.94h14.47l-37.06 62.25v-24.31zm251.47-12.6h28.79v12.32h-28.8v-12.32zm-188.8 0h28.8v12.32h-28.8v-12.32zm89.48-25.34c18.46 0 24.22 13.21 24.22 20.11l-14 1.35c0-5.09-4.85-10.17-10.18-10.17l-.04-11.3zm27.18.13h49.84v12.33H244v-12.32zm-116.75-.13h31.36v12.32h-31.36v-12.32zm188.8 0h31.35v12.32h-31.36v-12.32zm-268.63-9.2H25.14V8.36l22.29 37.2v54.97zM313.35 2.27h22.3v98.26h-22.3V2.27zm-229.68 98.2L25.4 2.53h21.2l58.32 98-21.26-.08zm76.92-17.65c6.34-.31 11.76-3.4 16.28-9.23 4.79-6.11 7.18-13.47 7.18-22.09 0-8.66-2.4-16.04-7.18-22.15-4.52-5.79-9.94-8.85-16.28-9.17V2.2c12.26.41 22.8 5.2 31.6 14.36 9.16 9.62 13.74 21.22 13.74 34.8 0 13.59-4.58 25.17-13.74 34.73-8.8 9.21-19.34 14.02-31.6 14.44v-17.7zm100.58 0c6.33-.31 11.76-3.4 16.28-9.23 4.78-6.11 7.18-13.47 7.18-22.09 0-8.66-2.4-16.04-7.18-22.15-4.51-5.79-9.95-8.85-16.28-9.17V2.2c12.27.41 22.79 5.2 31.6 14.36 9.15 9.62 13.74 21.22 13.74 34.8 0 13.59-4.59 25.17-13.75 34.73-8.8 9.21-19.32 14.02-31.59 14.44v-17.7zm-3.56-62.5c-5.7.69-10.64 3.7-14.83 9.03-4.79 6.1-7.18 13.5-7.18 22.15 0 8.62 2.39 15.98 7.18 22.09 4.2 5.38 9.14 8.41 14.83 9.1v17.77c-12.07-.45-22.45-5.24-31.1-14.36-9.18-9.57-13.75-21.15-13.75-34.73 0-13.58 4.58-25.18 13.74-34.8 8.66-9.07 19.03-13.84 31.11-14.3v18.05zm-100.57 0c-5.7.69-10.65 3.7-14.84 9.03-4.79 6.1-7.18 13.5-7.18 22.15 0 8.62 2.4 15.98 7.18 22.09 4.2 5.38 9.14 8.41 14.84 9.1v17.77c-12.08-.45-22.45-5.24-31.11-14.36-9.17-9.57-13.75-21.15-13.75-34.73 0-13.58 4.58-25.18 13.75-34.8 8.66-9.07 19.03-13.84 31.1-14.3v18.05zm238.83 80.08h-23.31s-3.75-4.22-5.87-16.68c-1.88-11.14-1.05-19.56-16.25-19.56h-11.25V46.38h15.3c6.82 0 13-5.88 13-13.82 0-7.25-4.18-13.12-14.73-13.12h-13.58V2h15.72c20.97 0 34.95 9.75 34.95 29.95 0 14.25-4.05 19.1-9.43 24.48 12.17 12.16 5.83 34.34 15.45 43.97zM82.78 2.48h22.29v92.17l-22.29-37.2V2.49z" fill="#fff"/>
  <path d="M523.32 26.63V2.7c-39.59 0-52.06 25.51-52.06 39.86 0 16.94 9.78 24.6 21.77 31.95-12.9 4.34-27.73 15.22-27.73 35.78 0 21.77 20.63 42.74 58.02 42.74v-24.21c-10.63.01-24.3-7.65-24.3-20.95 0-12.47 13.95-20.56 24.3-20.33V60.3c-9 .4-18.5-6.95-18.5-17.34 0-10.03 9.77-15.47 18.5-16.33zm34.99 47.88c11.99-7.36 21.77-15.01 21.77-31.95 0-21.47-22.8-39.97-52.06-39.97v24.04c8.73.85 18.5 6.3 18.5 16.32 0 10.4-9.5 17.75-18.5 17.35v27.24c10.35-.23 24.29 7.86 24.29 20.33 0 13.3-13.66 20.96-24.3 20.94v24.22c37.71 0 58.03-20.97 58.03-42.74 0-20.56-14.84-31.44-27.73-35.78zM459.76 151h-32.5V2.28l32.5.2V151zM422.83 4.75L403 22.98v36.9l19.83-18.3V4.75zM10.25 272.87L7.36 178.1l586.39-17.87 2.89 94.77-586.39 17.88zm101.92-42.82c.17 5.6-3.54 11.42-13.96 11.74-10.43.32-14.48-5.27-14.65-10.87l-.47-15.42c-.17-5.6 3.53-11.43 13.96-11.74 10.42-.32 14.48 5.27 14.65 10.87l.47 15.42zm15.78 10.83c-4.27.13-8.78-.67-12-2.02l1.2-6.47c3.41.95 6.87 1.57 10.7 1.45 4.27-.13 5.07-.99 4.98-4.1-.1-3.32-.28-3.7-6.36-4.85-9-1.67-10.38-3.4-10.62-11.38-.23-7.38 2.3-10.4 12.44-10.7 3.21-.1 7.1.11 11.23.87l-.62 7.01a56.54 56.54 0 0 0-10.28-.74c-3.71.12-4.53.8-4.45 3.52.11 3.55.28 3.6 6.14 4.81 10.06 2.08 10.62 4 10.84 11.27.22 7.32-2.06 11-13.2 11.33zm-83.67-26.8l9.1 4.88.3 10.31-8.77 5.43-9.09-4.88-.3-10.31 8.76-5.43zm100.16-11.21l8.31-.26 1.13 36.93-8.31.25-1.13-36.92zm9.92 17.78l9.43-18.37 9.37-.29-9.82 18.4 11.72 18.5-9.37.29-11.33-18.53zm-50.96-5.04c-.09-2.89-1.97-4.6-6.13-4.48-4.15.13-5.93 1.96-5.85 4.84l.43 13.97c.09 2.89 1.97 4.6 6.13 4.48 4.16-.13 5.94-1.96 5.85-4.84l-.43-13.97zm101.42-14.58l.8 26.17c.17 5.6-3.15 11.41-13.58 11.73-10.42.32-14.08-5.29-14.25-10.89l-.8-26.17 8.32-.25.77 25.4c.09 2.99 1.58 4.66 5.74 4.54 4.16-.13 5.55-1.9 5.46-4.89l-.77-25.4 8.31-.24zm16.9 37c-4.27.12-8.79-.68-12-2.03l1.2-6.47c3.41.95 6.87 1.57 10.7 1.45 4.26-.13 5.07-.99 4.98-4.1-.1-3.32-.28-3.7-6.37-4.85-8.99-1.67-10.37-3.4-10.61-11.39-.23-7.37 2.29-10.39 12.44-10.7 3.2-.1 7.1.12 11.23.88l-.62 7.01a56.55 56.55 0 0 0-10.29-.74c-3.7.11-4.52.8-4.44 3.52.11 3.55.28 3.6 6.14 4.81 10.06 2.08 10.61 4 10.83 11.27.23 7.32-2.05 11-13.2 11.33zm33.02-31.15l.9 29.55-8.32.26-.9-29.55-9.93.3-.22-7.37 28.16-.86.23 7.37-9.92.3zm14.16 29.15l-1.13-36.93 23.23-.7.23 7.37-14.92.46.21 6.76 13.75-.42.23 7.38-13.75.41.24 8.04 14.91-.45.23 7.37-23.23.71zm38.48-1.17l-1.12-36.93 23.45-.71.22 7.37-15.14.46.24 7.88 13.98-.43.22 7.37-13.97.43.44 14.3-8.32.26zm27.24-.89l-1.12-36.93 23.23-.7.22 7.37-14.91.45.2 6.77 13.75-.42.23 7.37-13.75.42.24 8.04 14.92-.45.22 7.37-23.23.71zm39.18-.55c-4.26.13-8.78-.67-12-2.02l1.2-6.47c3.41.95 6.87 1.56 10.7 1.45 4.27-.14 5.07-1 4.98-4.1-.1-3.32-.28-3.7-6.36-4.85-9-1.67-10.38-3.4-10.62-11.39-.22-7.37 2.3-10.39 12.44-10.7 3.21-.1 7.1.12 11.23.88l-.61 7a56.55 56.55 0 0 0-10.3-.73c-3.7.11-4.51.8-4.43 3.52.1 3.55.27 3.6 6.13 4.8 10.06 2.09 10.62 4.01 10.84 11.27.22 7.32-2.06 11-13.2 11.34zm32.95-31.22l.9 29.55-8.32.26-.9-29.56-9.93.3-.22-7.37 28.16-.85.23 7.37-9.93.3zm21.49-7.99l1.13 36.93-8.32.25-1.13-36.92 8.32-.26zm26.5 36.15l-11.87.37-11.55-36.6 8.54-.27 8.72 29.14 6.92-29.62 8.54-.26-9.3 37.24zm40.64-1.23l-8.65.26-2.21-7.15-12.37.38-1.78 7.27-8.65.26 10.14-37.27 11.08-.34 12.44 36.59zm3.31-.1l-1.13-36.93 8.32-.26.9 29.56 14.63-.45.23 7.37-22.95.7zm-24.87-13.4l8.49-.26-4.69-15.34-3.8 15.6zm84.48-17.22l9.1 4.88.3 10.31-8.77 5.43-9.08-4.88-.32-10.32 8.77-5.42z" fill="#0690ff"/>
</svg>