<?xml version="1.0" encoding="utf-8"?>
<!DOCTYPE svg PUBLIC "-//W3C//DTD SVG 1.1//EN" "http://www.w3.org/Graphics/SVG/1.1/DTD/svg11.dtd">
<svg version="1.1" id="Layer_1" xmlns="http://www.w3.org/2000/svg" xmlns:xlink="http://www.w3.org/1999/xlink" x="0px" y="0px"
	 viewBox="0 0 800 685">

<g fill="#152647">
	<path d="M2,618.44c0-45.56,27.78-62.74,83.7-88.52c20.4-9.4,72.32-22.86,72.32-47.86 c0-23.44-28.6-31.25-41.59-31.25l0.39-54.31c64.4,0,102.72,46.88,102.72,83.01c0,51.76-18.14,58.95-56.71,81.38 c-40.36,23.46-99.32,43.05-99.32,61.47l-0.08,58.58H2V618.44z"/>
	<path d="M107.25,450.99l-0.39-54.88C56.77,396.1,2.2,436.2,2.2,483.8l55.65,5.28 C57.85,468.04,85.92,450.99,107.25,450.99z"/>
	<rect x="72.5" y="622.5" width="147.43" height="58.43"/>
	<path d="M422.83,427.2c-18.66-20.36-42.88-29.93-76.86-31.09v52.43c15.36,2.35,35.6,22.67,37.28,40.5 c0.84,8.97,0.63,51.28,0.63,51.28s0.2,42.32-0.63,51.28c-1.68,17.84-21.92,38.15-37.28,40.5v52.43 c33.98-1.17,58.2-10.74,76.86-31.08c17.98-19.63,18.48-57.56,18.48-57.56v-55.55v-55.55C441.32,484.77,440.82,446.82,422.83,427.2" />
	<path d="M260.23,427.2c-17.99,19.62-18.48,57.57-18.48,57.57v55.55v55.55c0,0,0.49,37.93,18.48,57.56 c18.66,20.35,42.88,29.91,76.86,31.08v-52.43c-15.36-2.35-35.6-22.66-37.28-40.5c-0.84-8.95-0.64-51.28-0.64-51.28 s-0.2-42.31,0.64-51.28c1.68-17.83,21.92-38.15,37.28-40.5v-52.43C303.11,397.27,278.89,406.84,260.23,427.2"/>
	<polygon points="463.2,435.75 502.05,400.61 502.05,471.29 463.2,506.25 	"/>
	<rect x="509.97" y="399.73" width="63.65" height="280.6"/>
	<polygon points="797.8,461.86 670.23,680.91 600.2,680.91 727.77,461.86 	"/>
	<rect x="601.18" y="400.61" width="196.82" height="51.49"/>
</g>

<g fill="#202228">
	<polygon points="35.7,373.1 4.41,373.1 4.41,243.72 35.7,295.94 	"/>
	<polygon points="81,363.6 4.78,235.56 34.55,235.56 81,313.59 	"/>
	<polygon points="85.72,313.5 132.18,235.46 161.93,235.46 85.72,363.51 	"/>
	<polygon points="129.88,295.93 161.16,243.72 161.16,373.1 129.88,373.1 	"/>
	<rect x="177.79" y="235.17" width="31.29" height="137.93"/>
	<rect x="214.45" y="235.46" width="64.5" height="25.34"/>
	<rect x="214.64" y="287.58" width="59.23" height="25.34"/>
	<rect x="214.75" y="347.57" width="64.5" height="25.34"/>
	<rect x="295.24" y="235.17" width="31.29" height="137.93"/>
	<path d="M394.15,348.44l-0.19,24.66c-35.93,0-54.33-17.63-54.33-43.67l28.89-2.78 C368.52,341.57,380.79,348.44,394.15,348.44z"/>
	<path d="M384.27,313.65c-29.71-7.06-40.79-17.38-40.79-39.61c0-22.85,18.04-38.3,50.49-38.3l0.2,22.93 c-18.3,0-20.45,8.58-20.45,15.36c0,8.55,13.59,12.36,33.98,15.94c28.43,4.98,42.71,18.18,42.71,40.69 c0,26.14-16.69,42.81-51.26,42.81V349.2c14.61,0,21.02-6.06,21.02-16.6C420.17,325.82,413.98,320.72,384.27,313.65z"/>
	<path d="M398.67,235.46c37.96,0,49.82,27.18,49.82,41.37l-28.8,2.78c0-10.47-9.97-20.92-20.93-20.92L398.67,235.46z"/>
	<rect x="454.56" y="235.75" width="102.51" height="25.34"/>
	<rect x="490.94" y="266.17" width="31.28" height="106.64"/>
	<rect x="566.08" y="235.17" width="31.29" height="137.93"/>
	<rect x="602.74" y="235.46" width="64.51" height="25.34"/>
	<rect x="602.94" y="287.58" width="59.21" height="25.34"/>
	<rect x="603.03" y="347.57" width="64.51" height="25.34"/>
	<rect x="681.37" y="235.37" width="31.25" height="137.73"/>
	<path d="M775.4,311.28c17.05,17.05,8.16,48.13,21.66,61.63h-32.68c0,0-5.26-5.92-8.22-23.38 c-2.65-15.62-1.48-27.42-22.78-27.42h-15.77v-24.92h21.46c9.54,0,18.21-8.23,18.21-19.36c0-10.17-5.85-18.4-20.64-18.4h-19.03 v-24.44h22.04c29.38,0,48.98,13.66,48.98,41.98C788.63,296.94,782.93,303.74,775.4,311.28"/>
	<polygon points="51.77,211.36 4.4,211.36 4.4,15.51 51.77,94.55 	"/>
	<polygon points="128.77,211.21 4.98,3.16 50.02,3.16 173.94,211.36 	"/>
	<polygon points="126.88,3.01 174.24,3.01 174.24,198.87 126.88,119.83 	"/>
	<path d="M284.66,40.93c-12.1,1.45-22.62,7.85-31.53,19.18c-10.17,12.98-15.25,28.67-15.25,47.08 c0,18.31,5.09,33.95,15.25,46.93c8.91,11.43,19.43,17.88,31.53,19.32v37.77c-25.66-0.97-47.7-11.14-66.1-30.51 c-19.47-20.34-29.21-44.94-29.21-73.8c0-28.86,9.74-53.51,29.21-73.95c18.4-19.28,40.44-29.4,66.1-30.37V40.93z"/>
	<path d="M292.22,173.73c13.46-0.68,24.99-7.21,34.58-19.61c10.17-12.98,15.25-28.62,15.25-46.93 c0-18.4-5.09-34.09-15.25-47.08c-9.59-12.3-21.12-18.79-34.58-19.47V2.43c26.05,0.88,48.42,11.04,67.12,30.51 c19.47,20.44,29.2,45.08,29.2,73.95c0,28.87-9.73,53.47-29.2,73.8c-18.7,19.57-41.07,29.79-67.12,30.66V173.73z"/>
	<path d="M498.38,40.93c-12.1,1.45-22.61,7.85-31.53,19.18c-10.17,12.98-15.25,28.67-15.25,47.08 c0,18.31,5.08,33.95,15.25,46.93c8.91,11.43,19.42,17.88,31.53,19.32v37.77c-25.66-0.97-47.71-11.14-66.1-30.51 c-19.48-20.34-29.21-44.94-29.21-73.8c0-28.86,9.73-53.51,29.21-73.95c18.39-19.28,40.43-29.4,66.1-30.37V40.93z"/>
	<path d="M505.94,173.73c13.46-0.68,24.99-7.21,34.57-19.61c10.17-12.98,15.26-28.62,15.26-46.93 c0-18.4-5.08-34.09-15.26-47.08c-9.58-12.3-21.12-18.79-34.57-19.47V2.43c26.06,0.88,48.43,11.04,67.12,30.51 c19.47,20.44,29.21,45.08,29.21,73.95c0,28.87-9.74,53.47-29.21,73.8c-18.69,19.57-41.06,29.79-67.12,30.66V173.73z"/>
	<rect x="616.79" y="2.58" width="47.37" height="208.78"/>
	<path d="M759.32,117.65c25.85,25.85,12.37,72.96,32.83,93.43h-49.54c0,0-7.97-8.98-12.46-35.44 c-4.01-23.67-2.24-41.57-34.53-41.57h-23.91V96.29h32.54c14.47,0,27.6-12.48,27.6-29.35c0-15.42-8.87-27.9-31.3-27.9h-28.84V2 h33.41c44.54,0,74.25,20.7,74.25,63.63C779.37,95.92,770.74,106.23,759.32,117.65"/>
</g>
</svg>
