<svg viewBox="0 0 477 367" xmlns="http://www.w3.org/2000/svg" fill-rule="evenodd" clip-rule="evenodd" stroke-linejoin="round" stroke-miterlimit="1.41">
  <g>
    <path d="M207.27 259.35v-6.18l-39.06 3.42c-3.88 8.78-4.03 19.13-4.03 19.13v50.22s.22 17.15 8.35 26.02c8.43 9.2 19.38 13.52 34.74 14.06v-23.7c-6.94-1.07-16.1-10.25-16.85-18.31-.38-4.05-.38-42.3 0-46.36.76-8.06 9.91-17.25 16.85-18.3zm4.02-6.53v6.52c6.94 1.06 16.1 10.25 16.85 18.31.38 4.05.38 42.3 0 46.36-.76 8.06-9.9 17.24-16.85 18.3v23.7c15.36-.53 26.3-4.85 34.74-14.05 8.13-8.87 8.35-26.02 8.35-26.02v-50.22s-.22-17.06-8.29-25.95l-34.8 3.05zm157.78 3.9v-17.7l-25.35 2.21c-12.95 6.17-20.76 16.86-20.76 29.25 0 14.62 8.66 21.24 19.28 27.59-11.41 3.74-24.55 13.14-24.55 30.9 0 18.8 18.26 36.91 51.38 36.91v-20.91c-9.42.01-21.51-6.6-21.51-18.1 0-10.77 12.35-17.75 21.51-17.55V285.8c-7.97.35-16.38-6-16.38-14.98 0-8.66 8.65-13.36 16.38-14.1zm30.98 41.35c10.62-6.35 19.29-12.97 19.29-27.59 0-15.6-12.3-28.53-31.75-33.09l-14.36 1.26v18.07c7.73.74 16.38 5.44 16.38 14.1 0 8.98-8.4 15.33-16.38 14.98v23.52c9.17-.2 21.51 6.78 21.51 17.56 0 11.49-12.1 18.1-21.51 18.08v20.92c33.39 0 51.38-18.11 51.38-36.91 0-17.76-13.14-27.16-24.56-30.9zm-312.38 39.9h66.64v26.42H87.67v-26.41zm31.13-23.09c10.7-4.98 35.33-14.02 35.33-40.7 0-6.14-1.59-10.73-4.39-15.98l-35.69 3.12c2.34.52 12.28 2.73 12.28 13.18 0 10.44-24.6 19.3-35.42 25.06-8.44 4.49-35.1 15.99-35.1 36.58v28.25h27.76l.04-26.48c.12-9.12 15.38-13.82 35.2-23.03zm193.98 49.24H284V246.45l28.78-2.51v120.18zm-43.87-116.35l-6.4 5.8v31.86l17.57-15.8V246.8l-11.17.97zm-181.4 18.08c1.2-1.05 2.6-1.87 4.02-2.56l-33.88 2.97a50.36 50.36 0 0 0-1.76 9.03l25.16 2.38c-.08-2.5 1.98-7.94 6.46-11.82z" fill="#231f20"/>
    <path d="M7.62 268.5L1 192.8l468.38-40.97 6.62 75.7L7.62 268.51zm79.6-38.9c.4 4.48-2.31 9.31-10.63 10.04-8.33.73-11.83-3.56-12.22-8.03l-1.08-12.32c-.39-4.47 2.31-9.3 10.64-10.03 8.32-.73 11.82 3.56 12.21 8.04l1.08 12.3zm13.13 7.96c-3.41.3-7.07-.14-9.7-1.07l.66-5.23c2.78.6 5.57.94 8.63.67 3.41-.3 4.02-1.02 3.8-3.5-.23-2.66-.4-2.96-5.31-3.6-7.27-.92-8.46-2.25-9.01-8.62-.52-5.9 1.36-8.42 9.47-9.13 2.56-.23 5.69-.23 9.02.19l-.17 5.64c-3.42-.28-5.61-.36-8.27-.13-2.96.26-3.58.85-3.4 3.02.26 2.84.4 2.87 5.14 3.57 8.14 1.2 8.67 2.72 9.18 8.52.5 5.85-1.15 8.9-10.05 9.67zm-68.17-17.64l7.5 3.5.71 8.23-6.77 4.74-7.5-3.5-.71-8.23 6.77-4.74zm79.63-13.53l6.64-.58 2.58 29.5-6.64.58-2.58-29.5zm8.74 13.78l6.71-15.13 7.49-.65-7.02 15.16 10.22 14.28-7.48.65-9.92-14.3zm-41-1.72c-.2-2.3-1.79-3.59-5.1-3.3-3.33.3-4.66 1.84-4.47 4.14l.98 11.16c.2 2.3 1.79 3.6 5.1 3.3 3.33-.3 4.67-1.84 4.47-4.14l-.98-11.16zm80.49-16.28l1.83 20.9c.39 4.48-2 9.28-10.33 10.01-8.33.73-11.51-3.59-11.9-8.06l-1.83-20.9 6.64-.58 1.77 20.28c.21 2.39 1.48 3.66 4.8 3.37 3.33-.29 4.36-1.76 4.15-4.15l-1.77-20.29 6.64-.58zm15.2 28.84c-3.4.3-7.06-.14-9.69-1.08l.66-5.23c2.78.6 5.57.94 8.63.67 3.4-.3 4.01-1.02 3.8-3.5-.24-2.65-.4-2.95-5.32-3.6-7.26-.92-8.45-2.24-9-8.62-.52-5.89 1.35-8.42 9.46-9.13 2.57-.22 5.7-.23 9.03.2l-.18 5.63c-3.41-.28-5.6-.36-8.26-.12-2.97.26-3.59.85-3.4 3.02.25 2.83.39 2.86 5.13 3.56 8.14 1.21 8.68 2.73 9.18 8.53.52 5.84-1.14 8.89-10.04 9.67zm25-26.42l2.07 23.6-6.65.59-2.06-23.61-7.93.7-.51-5.9 22.5-1.96.5 5.89-7.92.69zm12.66 22.68l-2.58-29.5 18.56-1.62.51 5.89-11.91 1.04.47 5.4 10.98-.95.52 5.89-10.98.95.56 6.43 11.91-1.05.52 5.9-18.56 1.62zm30.74-2.7l-2.58-29.49 18.73-1.63.52 5.89-12.1 1.05.56 6.3 11.16-.98.51 5.89-11.16.97 1 11.43-6.64.58zm21.76-1.94l-2.59-29.5 18.56-1.62.51 5.89-11.9 1.04.46 5.4 10.99-.96.51 5.9-10.98.95.56 6.43 11.91-1.05.52 5.9-18.56 1.62zm31.32-2.22c-3.41.3-7.06-.14-9.69-1.07l.66-5.24c2.78.6 5.57.94 8.63.67 3.4-.3 4.01-1.02 3.8-3.5-.24-2.65-.4-2.95-5.32-3.6-7.27-.92-8.45-2.24-9.01-8.62-.52-5.89 1.36-8.42 9.47-9.13 2.56-.22 5.69-.23 9.03.2l-.18 5.63c-3.41-.28-5.6-.35-8.26-.12-2.97.26-3.59.85-3.4 3.02.25 2.83.39 2.86 5.13 3.56 8.14 1.21 8.68 2.73 9.18 8.53.51 5.84-1.14 8.89-10.04 9.67zm24.94-26.48l2.06 23.6-6.64.58-2.07-23.6-7.92.7-.52-5.9 22.5-1.96.51 5.88-7.92.7zm16.83-7.37l2.58 29.5-6.64.58-2.58-29.5 6.64-.58zm22.85 27.72l-9.48.83-10.9-28.76 6.82-.6 8.3 22.92 4.18-24.02 6.83-.6-5.75 30.23zm32.46-2.84l-6.9.6-2.1-5.61-9.88.86-1.1 5.9-6.9.6 6.41-30.28 8.86-.77 11.61 28.7zm2.65-.23l-2.58-29.5 6.64-.58 2.06 23.6 11.7-1.02.5 5.9-18.32 1.6zm-20.51-9.59l6.78-.59-4.45-12.06-2.33 12.65zM442.75 184l7.5 3.5.72 8.23-6.78 4.74-7.49-3.5-.72-8.23 6.77-4.74zM230.12 142.2c4.13.87 15.92 2.83 15.92 8.24.12 6.98-5.76 7.5-9.5 7.5v10.98c9.97 0 23.17-3.3 23.17-18.95 0-14.07-10.67-17.4-23.78-19.7-7.26-1.34-10.89-3.43-10.89-6.3-.14-7.38 9.01-6.94 9.24-6.94l-.08-10.37c-9.74 0-22.83 3.43-22.83 17.69 0 12.57 9.45 15.88 18.75 17.84zm-20.48 6.8c0 7.18 2.91 19.75 24.56 19.75l.08-11.15c-2.93 0-11.58-1.71-11.58-9.85L209.64 149zm-80.67 19.75h-14.15v-34.88l14.15-23.6v58.48zm-56.72 0H58.11v-58.49l14.14 23.6v34.89zm78.38 0h-14.15V106.4h14.15v62.35zm53.09 0h-14.15V106.4h14.15v62.35zm-50.53-11.54h29.15v11.45H153.2v-11.45zm138.98-36.8v44.8l-14.14 1.23v-46.02h14.14zM71.73 106.58l21 35.28v22.6l-34.45-57.88h13.45zm57.58-.04l-34.45 57.88v-22.6l21-35.28h13.45zm196.83-.13v55.83L312 163.47V106.4h14.14zm31.72 50.8v2.26L328.7 162v-4.8h29.16zm20.41-50.8v51.27l-14.14 1.24v-52.5h14.14zm12.24-.17c8.36 0 22.17 2.25 22.17 19.41 0 10.07-5.32 14.55-5.99 15.12 2.7 1.93 3.7 5.96 4.3 10.46.16 1.19.68 3.53.68 3.53l-14.04 1.23-.79-4.98s-.8-3.5-3.56-4.42c-1.74-.58-5.98-.91-12.75-.91v-11.28h9.74c4.5 0 8.22-3.05 8.22-9.28 0-4.66-3.53-7.82-7.98-7.82h-9.98v-11.06h9.98zm-35.08 35.31h-26.77V130.1h26.77v11.45zm-175.52 0h-26.77V130.1h26.77v11.45zm56.46-24.51c1.44 0 9.46 2.24 9.46 9.46l13.01-1.26c0-7.29-5.87-18.7-22.52-18.7l.05 10.5zm71.55 1.09H261.6v-11.46h46.33v11.46zm49.8-.14h-29.15v-11.45h29.16v11.45zm-175.51 0h-29.16v-11.45h29.16v11.45zM79.51 95.64h-21.4V7.1l21.4 35.72v52.8zm108.7-17.01c6.08-.31 11.3-3.27 15.63-8.87 4.6-5.87 6.9-12.94 6.9-21.21 0-8.32-2.3-15.41-6.9-21.28-4.34-5.56-9.55-8.5-15.63-8.8V1.2c11.77.4 21.89 4.99 30.34 13.79 8.8 9.24 13.2 20.38 13.2 33.42 0 13.05-4.4 24.17-13.2 33.37-8.45 8.84-18.57 13.46-30.34 13.86V78.63zm96.43 0c6.08-.31 11.3-3.27 15.63-8.87 4.6-5.87 6.9-12.94 6.9-21.21 0-8.32-2.3-15.41-6.9-21.28-4.34-5.56-9.55-8.5-15.63-8.8V1.2c11.78.4 21.89 4.99 30.34 13.79 8.8 9.24 13.2 20.38 13.2 33.42 0 13.05-4.4 24.17-13.2 33.37-8.45 8.84-18.56 13.46-30.34 13.86V78.63zM114.32 95.57L58.37 1.52h20.36l56.02 94.12-20.43-.07zm242.01.06h-21.4V1.26h21.4v94.37zM184.8 18.6c-5.47.66-10.22 3.55-14.25 8.67-4.6 5.87-6.9 12.96-6.9 21.28 0 8.27 2.3 15.34 6.9 21.21 4.03 5.17 8.78 8.08 14.25 8.73v17.08c-11.6-.44-21.56-5.03-29.88-13.8-8.8-9.19-13.2-20.3-13.2-33.36 0-13.04 4.4-24.19 13.2-33.42C163.23 6.28 173.2 1.7 184.8 1.26V18.6zm96.43 0c-5.47.66-10.22 3.55-14.25 8.67-4.6 5.87-6.9 12.96-6.9 21.28 0 8.27 2.3 15.34 6.9 21.21 4.03 5.17 8.78 8.08 14.25 8.73v17.08c-11.6-.44-21.56-5.03-29.88-13.8-8.8-9.19-13.2-20.3-13.2-33.36 0-13.04 4.4-24.19 13.2-33.42 8.32-8.71 18.28-13.29 29.88-13.73V18.6zm118.13 34.67c-.18 0 4.73 4.5 5.62 10.18 1.41 9.03 3.34 17.72 4.26 22.61.67 3.56 4.77 9.3 4.96 9.31l-22.4.13c-.74 0-2.57-2.05-4-8-.74-3.08-2.43-14.3-3.35-18.72-.58-2.8-2.66-5.81-5.39-6.7-4.11-1.35-9.06-1.38-19.3-1.38V43.62h15.53c5.87 0 11.76-5.58 11.76-13.74 0-7.68-6.53-12.13-12.19-12.13h-15.1V1h15.1c12.65 0 33.4 4.26 33.56 29.39.09 14.44-8.1 22.87-9.06 22.88zM113.47 1.46h21.41v88.53l-21.41-35.73V1.46z" fill="#0072ce"/>
  </g>
</svg>