<svg xmlns="http://www.w3.org/2000/svg" fill-rule="evenodd" stroke-miterlimit="1.41" viewBox="0 0 504 504" clip-rule="evenodd" stroke-linejoin="round">
  <path fill="#262626" d="M251.92.16c-68.42 0-77 .3-103.87 1.52-26.8 1.22-45.12 5.48-61.15 11.7-16.56 6.44-30.6 15.06-44.62 29.06-14 14-22.62 28.06-29.06 44.62C7 103.1 2.74 121.4 1.52 148.2.28 175.1 0 183.67 0 252.1c0 68.42.3 77 1.5 103.87 1.24 26.8 5.5 45.12 11.72 61.15 6.44 16.56 15.06 30.6 29.06 44.62 14 14 28.06 22.62 44.62 29.05 16.03 6.23 34.34 10.5 61.15 11.7 26.87 1.24 35.45 1.53 103.87 1.53s77-.3 103.87-1.52c26.8-1.22 45.1-5.48 61.14-11.7 16.56-6.44 30.6-15.06 44.62-29.06 14-14 22.62-28.06 29.06-44.62 6.22-16.03 10.48-34.34 11.7-61.15 1.23-26.87 1.52-35.45 1.52-103.87s-.3-77-1.5-103.87c-1.24-26.8-5.5-45.1-11.72-61.14-6.44-16.56-15.06-30.6-29.06-44.62-14-14-28.06-22.62-44.62-29.06C400.9 7.16 382.6 2.9 355.8 1.68 328.9.44 320.33.15 251.9.15z"/>
  <path fill="#fff" d="M251.92 45.55c67.27 0 75.23.26 101.8 1.47 24.56 1.12 37.9 5.22 46.78 8.67 11.75 4.56 20.15 10.02 28.96 18.84 8.82 8.8 14.28 17.2 18.85 28.96 3.46 8.88 7.56 22.22 8.68 46.78 1.2 26.57 1.47 34.53 1.47 101.8s-.26 75.23-1.47 101.8c-1.12 24.56-5.22 37.9-8.67 46.78-4.56 11.75-10.02 20.15-18.84 28.96-8.8 8.82-17.2 14.28-28.96 18.85-8.88 3.45-22.22 7.55-46.78 8.67-26.56 1.2-34.53 1.47-101.8 1.47s-75.24-.25-101.8-1.46c-24.56-1.12-37.9-5.22-46.78-8.67-11.75-4.57-20.15-10.03-28.96-18.85-8.82-8.8-14.28-17.2-18.85-28.97-3.45-8.87-7.55-22.2-8.67-46.77-1.2-26.57-1.47-34.54-1.47-101.8 0-67.27.25-75.23 1.46-101.8.44-9.74 1.36-17.7 2.5-24.34 1.77-10.1 4.1-17.08 6.17-22.44 4.57-11.75 10.03-20.15 18.85-28.96 8.8-8.82 17.2-14.28 28.96-18.85 8.88-3.46 22.22-7.56 46.78-8.68 26.57-1.2 34.53-1.47 101.8-1.47z"/>
  <path fill="#262626" fill-rule="nonzero" d="M251.92 336.05c-46.38 0-83.97-37.6-83.97-83.97 0-46.38 37.6-83.97 83.97-83.97 46.38 0 83.97 37.6 83.97 83.98s-37.6 83.97-83.98 83.97zm0-213.34c-71.45.02-129.36 57.93-129.36 129.38 0 71.45 57.9 129.36 129.36 129.36 71.45 0 129.37-57.9 129.37-129.36-.02-71.45-57.93-129.37-129.38-129.37v.02zM416.63 117.6c0 16.7-13.54 30.23-30.23 30.23-16.7 0-30.23-13.53-30.23-30.23 0-16.7 13.53-30.23 30.23-30.23 16.7 0 30.23 13.54 30.23 30.23z"/>
</svg>
