<?xml version="1.0" encoding="UTF-8" standalone="no"?><!DOCTYPE svg PUBLIC "-//W3C//DTD SVG 1.1//EN" "http://www.w3.org/Graphics/SVG/1.1/DTD/svg11.dtd"><svg width="100%" height="100%" viewBox="0 0 1024 1024" version="1.1" xmlns="http://www.w3.org/2000/svg" xmlns:xlink="http://www.w3.org/1999/xlink" xml:space="preserve" style="fill-rule:evenodd;clip-rule:evenodd;stroke-linejoin:round;stroke-miterlimit:1.41421;"><path id="bg" d="M1018,188c0,-102.17 -82.83,-185 -185,-185l-644,0c-102.17,0 -185,82.83 -185,185l0,636c0,102.17 82.83,185 185,185l644,0c102.17,0 185,-82.83 185,-185l0,-636Z" style="fill:#262626;"/><path id="The.-Sharpness" d="M441,398l160,106l21,-12l-181,-94Z" style="fill-opacity:0.498039;"/><path id="Icon" d="M512.15,255.02c1.7,0 143.3,0.04 237.9,6.93c13.3,1.6 42.27,1.73 68.13,29.02c20.4,20.8 27.03,68.02 27.03,68.02c0,0 6.8,55.45 6.8,110.9l0,52c0,55.45 -6.8,110.9 -6.8,110.9c0,0 -6.63,47.22 -27.02,68.02c-25.86,27.3 -54.84,27.43 -68.13,29.02c-95.16,6.97 -238.06,7.17 -238.06,7.17c0,0 -176.8,-1.63 -231.2,-6.9c-15.13,-2.85 -49.1,-2 -74.98,-29.28c-20.4,-20.8 -27.02,-68.02 -27.02,-68.02c0,0 -6.8,-55.45 -6.8,-110.9l0,-52c0,-55.45 6.8,-110.9 6.8,-110.9c0,0 6.63,-47.23 27.02,-68.03c25.87,-27.3 54.84,-27.43 68.13,-29.02c94.6,-6.9 236.2,-6.93 237.9,-6.93l0.3,0Zm-71.15,142.98l180.68,94.57l-180.68,98.43l0,-193Z" style="fill:#fff;"/></svg>